<?xml version="1.0" encoding="UTF-8" standalone="no"?>
<!-- Created with Inkscape (http://www.inkscape.org/) -->

<svg
   xmlns:dc="http://purl.org/dc/elements/1.1/"
   xmlns:cc="http://creativecommons.org/ns#"
   xmlns:rdf="http://www.w3.org/1999/02/22-rdf-syntax-ns#"
   xmlns:svg="http://www.w3.org/2000/svg"
   xmlns="http://www.w3.org/2000/svg"
   xmlns:sodipodi="http://sodipodi.sourceforge.net/DTD/sodipodi-0.dtd"
   xmlns:inkscape="http://www.inkscape.org/namespaces/inkscape"
   width="198.32411mm"
   height="19.541367mm"
   viewBox="0 0 198.32411 19.541367"
   version="1.1"
   id="svg1669"
   inkscape:version="0.92.5 (2060ec1f9f, 2020-04-08)"
   sodipodi:docname="upper-bounded-sum-and-the-lower-bounded-product-latex.svg">
  <defs
     id="defs1663" />
  <sodipodi:namedview
     id="base"
     pagecolor="#ffffff"
     bordercolor="#666666"
     borderopacity="1.0"
     inkscape:pageopacity="0.0"
     inkscape:pageshadow="2"
     inkscape:zoom="0.7"
     inkscape:cx="112.01866"
     inkscape:cy="-211.17619"
     inkscape:document-units="mm"
     inkscape:current-layer="layer1"
     showgrid="false"
     inkscape:window-width="1920"
     inkscape:window-height="1056"
     inkscape:window-x="1920"
     inkscape:window-y="0"
     inkscape:window-maximized="1"
     inkscape:snap-nodes="false"
     inkscape:object-nodes="false"
     fit-margin-top="0"
     fit-margin-left="0"
     fit-margin-right="0"
     fit-margin-bottom="0" />
  <metadata
     id="metadata1666">
    <rdf:RDF>
      <cc:Work
         rdf:about="">
        <dc:format>image/svg+xml</dc:format>
        <dc:type
           rdf:resource="http://purl.org/dc/dcmitype/StillImage" />
        <dc:title />
      </cc:Work>
    </rdf:RDF>
  </metadata>
  <g
     inkscape:label="Layer 1"
     inkscape:groupmode="layer"
     id="layer1"
     transform="translate(-6.6712796,-19.433176)">
    <g
       id="g2710"
       transform="matrix(5.2135848,0,0,5.2135848,-30.520401,-687.13112)">
      <g
         word-spacing="normal"
         letter-spacing="normal"
         font-size-adjust="none"
         font-stretch="normal"
         font-weight="normal"
         font-variant="normal"
         font-style="normal"
         stroke-miterlimit="10.433"
         xml:space="preserve"
         transform="matrix(0.02791624,0,0,-0.02791624,-4.8853417,148.74308)"
         id="content"
         style="font-style:normal;font-variant:normal;font-weight:normal;font-stretch:normal;letter-spacing:normal;word-spacing:normal;text-anchor:start;fill:none;fill-opacity:1;fill-rule:evenodd;stroke:#000000;stroke-linecap:butt;stroke-linejoin:miter;stroke-miterlimit:10.43299961;stroke-dasharray:none;stroke-dashoffset:0;stroke-opacity:1"><path
           id="path2619"
           d="m 472.16,405.29 0.03,0.13 0.04,0.14 0.04,0.17 0.04,0.18 0.06,0.19 0.06,0.21 0.06,0.21 0.07,0.23 0.08,0.23 0.09,0.24 0.1,0.25 0.1,0.24 0.11,0.25 0.12,0.25 0.13,0.25 0.14,0.25 0.15,0.24 0.15,0.24 0.17,0.23 0.18,0.22 0.18,0.22 0.2,0.2 0.21,0.19 0.22,0.17 0.23,0.17 0.25,0.14 0.12,0.06 0.13,0.06 0.14,0.06 0.13,0.05 0.14,0.05 0.14,0.04 0.15,0.03 0.15,0.03 0.15,0.02 0.16,0.02 0.16,0.01 h 0.16 c 0.25,0 1.44,0 2.48,-0.64 -1.39,-0.25 -2.39,-1.5 -2.39,-2.69 0,-0.79 0.55,-1.75 1.89,-1.75 1.1,0 2.69,0.89 2.69,2.89 0,2.6 -2.94,3.28 -4.63,3.28 -2.89,0 -4.64,-2.64 -5.23,-3.78 -1.25,3.28 -3.94,3.78 -5.37,3.78 -5.19,0 -8.04,-6.42 -8.04,-7.67 0,-0.5 0.5,-0.5 0.61,-0.5 0.39,0 0.55,0.11 0.64,0.55 1.69,5.28 4.99,6.53 6.68,6.53 0.95,0 2.68,-0.44 2.68,-3.33 0,-1.54 -0.84,-4.89 -2.68,-11.86 -0.8,-3.09 -2.54,-5.18 -4.74,-5.18 -0.3,0 -1.44,0 -2.48,0.65 1.25,0.24 2.34,1.28 2.34,2.69 0,1.34 -1.09,1.73 -1.84,1.73 -1.5,0 -2.75,-1.29 -2.75,-2.89 0,-2.28 2.5,-3.28 4.68,-3.28 3.3,0 5.08,3.49 5.24,3.78 0.59,-1.84 2.39,-3.78 5.37,-3.78 5.14,0 7.99,6.42 7.99,7.67 0,0.5 -0.45,0.5 -0.61,0.5 -0.44,0 -0.55,-0.2 -0.64,-0.54 -1.64,-5.33 -5.03,-6.53 -6.63,-6.53 -1.95,0 -2.75,1.59 -2.75,3.29 0,1.1 0.3,2.19 0.86,4.38 z"
           inkscape:connector-curvature="0"
           style="fill:#000000;stroke-width:0" /><path
           id="path2621"
           d="m 495.63,404.84 v 0.04 0.04 0.04 0.04 0.04 0.04 0.04 0.03 0.04 0.03 l -0.01,0.03 v 0.03 0.03 l -0.01,0.03 v 0.03 0.02 l -0.01,0.03 v 0.02 l -0.01,0.02 v 0.03 l -0.01,0.04 -0.02,0.04 -0.02,0.03 -0.02,0.03 -0.02,0.03 -0.02,0.03 -0.03,0.02 -0.03,0.02 -0.03,0.01 -0.04,0.02 -0.04,0.01 -0.05,0.01 -0.02,0.01 h -0.02 l -0.03,0.01 h -0.03 -0.02 l -0.03,0.01 h -0.03 -0.03 -0.03 -0.04 l -0.03,0.01 h -0.04 -0.03 -0.04 -0.04 -0.04 -0.04 -0.04 -0.05 -0.04 c -2.24,-2.2 -5.39,-2.23 -6.83,-2.23 v -1.25 c 0.84,0 3.14,0 5.04,0.96 v -17.76 c 0,-1.16 0,-1.61 -3.48,-1.61 h -1.31 v -1.25 c 0.62,0.03 4.9,0.14 6.2,0.14 1.08,0 5.47,-0.11 6.24,-0.14 v 1.25 h -1.33 c -3.49,0 -3.49,0.45 -3.49,1.61 z"
           inkscape:connector-curvature="0"
           style="fill:#000000;stroke-width:0" /><path
           id="path2623"
           d="m 537.82,401.69 h 13.9 c 0.69,0 1.64,0 1.64,1 0,1 -0.95,1 -1.64,1 h -13.9 v 13.95 c 0,0.69 0,1.65 -1,1.65 -0.99,0 -0.99,-0.96 -0.99,-1.65 v -13.95 h -13.95 c -0.7,0 -1.64,0 -1.64,-1 0,-1 0.94,-1 1.64,-1 h 13.95 v -13.94 c 0,-0.7 0,-1.65 0.99,-1.65 1,0 1,0.95 1,1.65 z"
           inkscape:connector-curvature="0"
           style="fill:#000000;stroke-width:0" /><path
           id="path2625"
           d="m 583.88,405.29 0.03,0.13 0.03,0.14 0.05,0.17 0.04,0.18 0.06,0.19 0.05,0.21 0.07,0.21 0.07,0.23 0.08,0.23 0.09,0.24 0.1,0.25 0.1,0.24 0.11,0.25 0.12,0.25 0.13,0.25 0.14,0.25 0.14,0.24 0.16,0.24 0.17,0.23 0.17,0.22 0.19,0.22 0.2,0.2 0.21,0.19 0.22,0.17 0.23,0.17 0.25,0.14 0.12,0.06 0.13,0.06 0.14,0.06 0.13,0.05 0.14,0.05 0.14,0.04 0.15,0.03 0.15,0.03 0.15,0.02 0.15,0.02 0.16,0.01 h 0.17 c 0.25,0 1.43,0 2.48,-0.64 -1.39,-0.25 -2.39,-1.5 -2.39,-2.69 0,-0.79 0.55,-1.75 1.89,-1.75 1.1,0 2.69,0.89 2.69,2.89 0,2.6 -2.94,3.28 -4.63,3.28 -2.89,0 -4.64,-2.64 -5.23,-3.78 -1.25,3.28 -3.94,3.78 -5.38,3.78 -5.18,0 -8.03,-6.42 -8.03,-7.67 0,-0.5 0.5,-0.5 0.61,-0.5 0.39,0 0.55,0.11 0.64,0.55 1.69,5.28 4.99,6.53 6.68,6.53 0.95,0 2.68,-0.44 2.68,-3.33 0,-1.54 -0.84,-4.89 -2.68,-11.86 -0.8,-3.09 -2.54,-5.18 -4.74,-5.18 -0.3,0 -1.44,0 -2.48,0.65 1.25,0.24 2.34,1.28 2.34,2.69 0,1.34 -1.09,1.73 -1.84,1.73 -1.5,0 -2.75,-1.29 -2.75,-2.89 0,-2.28 2.5,-3.28 4.68,-3.28 3.3,0 5.08,3.49 5.24,3.78 0.59,-1.84 2.39,-3.78 5.37,-3.78 5.14,0 7.99,6.42 7.99,7.67 0,0.5 -0.46,0.5 -0.61,0.5 -0.44,0 -0.55,-0.2 -0.64,-0.54 -1.64,-5.33 -5.03,-6.53 -6.63,-6.53 -1.95,0 -2.75,1.59 -2.75,3.29 0,1.1 0.3,2.19 0.86,4.38 z"
           inkscape:connector-curvature="0"
           style="fill:#000000;stroke-width:0" /><path
           id="path2627"
           d="m 613.27,389.02 h -1.18 c -0.1,-0.76 -0.46,-2.82 -0.91,-3.17 -0.27,-0.2 -2.95,-0.2 -3.44,-0.2 h -6.42 c 3.66,3.23 4.88,4.2 6.97,5.84 2.58,2.06 4.98,4.22 4.98,7.53 0,4.22 -3.68,6.8 -8.15,6.8 -4.32,0 -7.25,-3.03 -7.25,-6.23 0,-1.79 1.5,-1.96 1.86,-1.96 0.82,0 1.84,0.6 1.84,1.85 0,0.62 -0.25,1.84 -2.06,1.84 1.08,2.47 3.45,3.23 5.09,3.23 3.49,0 5.3,-2.7 5.3,-5.53 0,-3.03 -2.16,-5.43 -3.28,-6.68 l -8.39,-8.3 c -0.36,-0.31 -0.36,-0.39 -0.36,-1.36 h 14.36 z"
           inkscape:connector-curvature="0"
           style="fill:#000000;stroke-width:0" /><path
           id="path2629"
           d="m 649.53,401.69 h 13.91 c 0.69,0 1.64,0 1.64,1 0,1 -0.95,1 -1.64,1 h -13.91 v 13.95 c 0,0.69 0,1.65 -1,1.65 -0.98,0 -0.98,-0.96 -0.98,-1.65 V 403.69 H 633.6 c -0.7,0 -1.64,0 -1.64,-1 0,-1 0.94,-1 1.64,-1 h 13.95 v -13.94 c 0,-0.7 0,-1.65 0.98,-1.65 1,0 1,0.95 1,1.65 z"
           inkscape:connector-curvature="0"
           style="fill:#000000;stroke-width:0" /><path
           id="path2631"
           d="m 688.52,402.69 v 0.14 l -0.01,0.13 -0.02,0.13 -0.02,0.13 -0.03,0.13 -0.04,0.12 -0.04,0.13 -0.05,0.12 -0.05,0.11 -0.06,0.12 -0.06,0.11 -0.07,0.11 -0.08,0.1 -0.07,0.1 -0.09,0.09 -0.09,0.1 -0.09,0.08 -0.09,0.09 -0.1,0.08 -0.11,0.07 -0.1,0.07 -0.11,0.06 -0.12,0.06 -0.12,0.05 -0.12,0.05 -0.12,0.04 -0.12,0.04 -0.13,0.03 -0.13,0.02 -0.13,0.02 -0.14,0.01 h -0.13 c -1.44,0 -2.64,-1.19 -2.64,-2.64 0,-1.44 1.2,-2.64 2.64,-2.64 1.45,0 2.64,1.2 2.64,2.64 z"
           inkscape:connector-curvature="0"
           style="fill:#000000;stroke-width:0" /><path
           id="path2633"
           d="m 710.6,402.69 -0.01,0.14 -0.01,0.13 -0.01,0.13 -0.03,0.13 -0.03,0.13 -0.03,0.12 -0.04,0.13 -0.05,0.12 -0.05,0.11 -0.06,0.12 -0.07,0.11 -0.06,0.11 -0.08,0.1 -0.08,0.1 -0.08,0.09 -0.09,0.1 -0.09,0.08 -0.1,0.09 -0.1,0.08 -0.1,0.07 -0.11,0.07 -0.11,0.06 -0.11,0.06 -0.12,0.05 -0.12,0.05 -0.12,0.04 -0.12,0.04 -0.13,0.03 -0.13,0.02 -0.13,0.02 -0.14,0.01 h -0.13 c -1.44,0 -2.64,-1.19 -2.64,-2.64 0,-1.44 1.2,-2.64 2.64,-2.64 1.45,0 2.64,1.2 2.64,2.64 z"
           inkscape:connector-curvature="0"
           style="fill:#000000;stroke-width:0" /><path
           id="path2635"
           d="m 732.68,402.69 -0.01,0.14 -0.01,0.13 -0.01,0.13 -0.03,0.13 -0.03,0.13 -0.03,0.12 -0.04,0.13 -0.05,0.12 -0.06,0.11 -0.05,0.12 -0.07,0.11 -0.07,0.11 -0.07,0.1 -0.08,0.1 -0.08,0.09 -0.09,0.1 -0.09,0.08 -0.1,0.09 -0.1,0.08 -0.1,0.07 -0.11,0.07 -0.11,0.06 -0.11,0.06 -0.12,0.05 -0.12,0.05 -0.12,0.04 -0.13,0.04 -0.12,0.03 -0.13,0.02 -0.14,0.02 -0.13,0.01 h -0.14 c -1.43,0 -2.63,-1.19 -2.63,-2.64 0,-1.44 1.2,-2.64 2.63,-2.64 1.46,0 2.65,1.2 2.65,2.64 z"
           inkscape:connector-curvature="0"
           style="fill:#000000;stroke-width:0" /><path
           id="path2637"
           d="m 768.56,401.69 h 13.91 c 0.69,0 1.64,0 1.64,1 0,1 -0.95,1 -1.64,1 h -13.91 v 13.95 c 0,0.69 0,1.65 -1,1.65 -0.98,0 -0.98,-0.96 -0.98,-1.65 v -13.95 h -13.96 c -0.7,0 -1.64,0 -1.64,-1 0,-1 0.94,-1 1.64,-1 h 13.96 v -13.94 c 0,-0.7 0,-1.65 0.98,-1.65 1,0 1,0.95 1,1.65 z"
           inkscape:connector-curvature="0"
           style="fill:#000000;stroke-width:0" /><path
           id="path2639"
           d="m 814.62,405.29 0.04,0.13 0.03,0.14 0.04,0.17 0.05,0.18 0.05,0.19 0.06,0.21 0.07,0.21 0.07,0.23 0.08,0.23 0.09,0.24 0.09,0.25 0.11,0.24 0.11,0.25 0.12,0.25 0.13,0.25 0.13,0.25 0.15,0.24 0.16,0.24 0.16,0.23 0.18,0.22 0.19,0.22 0.2,0.2 0.21,0.19 0.22,0.17 0.23,0.17 0.24,0.14 0.13,0.06 0.13,0.06 0.13,0.06 0.14,0.05 0.14,0.05 0.14,0.04 0.15,0.03 0.14,0.03 0.16,0.02 0.15,0.02 0.16,0.01 h 0.16 c 0.25,0 1.44,0 2.49,-0.64 -1.39,-0.25 -2.39,-1.5 -2.39,-2.69 0,-0.79 0.54,-1.75 1.89,-1.75 1.09,0 2.68,0.89 2.68,2.89 0,2.6 -2.93,3.28 -4.62,3.28 -2.89,0 -4.64,-2.64 -5.23,-3.78 -1.26,3.28 -3.94,3.78 -5.38,3.78 -5.19,0 -8.03,-6.42 -8.03,-7.67 0,-0.5 0.5,-0.5 0.61,-0.5 0.39,0 0.54,0.11 0.64,0.55 1.69,5.28 4.98,6.53 6.67,6.53 0.95,0 2.69,-0.44 2.69,-3.33 0,-1.54 -0.85,-4.89 -2.69,-11.86 -0.8,-3.09 -2.53,-5.18 -4.73,-5.18 -0.3,0 -1.44,0 -2.49,0.65 1.25,0.24 2.35,1.28 2.35,2.69 0,1.34 -1.1,1.73 -1.85,1.73 -1.5,0 -2.75,-1.29 -2.75,-2.89 0,-2.28 2.5,-3.28 4.69,-3.28 3.3,0 5.08,3.49 5.23,3.78 0.6,-1.84 2.39,-3.78 5.38,-3.78 5.14,0 7.98,6.42 7.98,7.67 0,0.5 -0.45,0.5 -0.61,0.5 -0.43,0 -0.54,-0.2 -0.64,-0.54 -1.64,-5.33 -5.03,-6.53 -6.62,-6.53 -1.95,0 -2.75,1.59 -2.75,3.29 0,1.1 0.3,2.19 0.86,4.38 z"
           inkscape:connector-curvature="0"
           style="fill:#000000;stroke-width:0" /><path
           id="path2641"
           d="m 830.69,384.87 -0.01,-0.05 -0.02,-0.04 -0.01,-0.05 -0.01,-0.05 -0.02,-0.05 -0.01,-0.05 -0.02,-0.05 -0.01,-0.05 -0.03,-0.11 -0.03,-0.12 -0.03,-0.11 -0.02,-0.11 -0.02,-0.05 -0.01,-0.05 -0.01,-0.05 -0.01,-0.05 -0.01,-0.05 -0.01,-0.04 -0.01,-0.05 -0.01,-0.04 -0.01,-0.04 v -0.03 l -0.01,-0.03 v -0.03 l -0.01,-0.02 v -0.03 0 -0.01 -0.01 0 c 0,-0.77 0.62,-1.11 1.18,-1.11 0.63,0 1.18,0.45 1.37,0.76 0.17,0.31 0.45,1.42 0.62,2.16 0.17,0.65 0.55,2.26 0.76,3.14 0.21,0.76 0.43,1.53 0.6,2.33 0.37,1.43 0.45,1.7 1.45,3.14 0.99,1.39 2.63,3.2 5.24,3.2 2.01,0 2.04,-1.78 2.04,-2.44 0,-2.09 -1.48,-5.95 -2.04,-7.42 -0.39,-0.98 -0.54,-1.3 -0.54,-1.89 0,-1.84 1.55,-2.98 3.32,-2.98 3.48,0 5.01,4.79 5.01,5.32 0,0.46 -0.45,0.46 -0.54,0.46 -0.5,0 -0.54,-0.21 -0.67,-0.6 -0.8,-2.78 -2.3,-4.22 -3.69,-4.22 -0.74,0 -0.88,0.49 -0.88,1.22 0,0.8 0.17,1.25 0.8,2.83 0.42,1.08 1.86,4.77 1.86,6.72 0,3.39 -2.69,3.97 -4.53,3.97 -2.89,0 -4.85,-1.77 -5.89,-3.16 -0.25,2.39 -2.3,3.16 -3.74,3.16 -1.5,0 -2.3,-1.08 -2.75,-1.88 -0.76,-1.28 -1.25,-3.28 -1.25,-3.45 0,-0.45 0.49,-0.45 0.6,-0.45 0.48,0 0.51,0.11 0.76,1.04 0.52,2.07 1.19,3.77 2.55,3.77 0.91,0 1.14,-0.77 1.14,-1.7 0,-0.67 -0.31,-1.96 -0.56,-2.89 -0.24,-0.96 -0.58,-2.38 -0.77,-3.14 z"
           inkscape:connector-curvature="0"
           style="fill:#000000;stroke-width:0" /><path
           id="path2643"
           d="m 900.98,419.83 0.1,0.05 0.1,0.05 0.05,0.02 0.05,0.02 0.04,0.03 0.04,0.02 0.05,0.03 0.04,0.03 0.04,0.02 0.04,0.03 0.03,0.03 0.04,0.03 0.03,0.03 0.04,0.03 0.03,0.03 0.03,0.04 0.02,0.03 0.03,0.03 0.02,0.04 0.03,0.04 0.02,0.04 0.02,0.04 0.01,0.04 0.02,0.05 0.01,0.04 0.01,0.05 0.01,0.05 v 0.05 l 0.01,0.05 v 0.06 c 0,0.54 -0.41,1 -1,1 -0.25,0 -0.71,-0.21 -0.89,-0.3 l -27.57,-13 c -0.84,-0.41 -0.98,-0.75 -0.98,-1.16 0,-0.43 0.3,-0.79 0.98,-1.09 l 27.57,-12.95 c 0.64,-0.35 0.75,-0.35 0.89,-0.35 0.54,0 1,0.44 1,1 0,0.44 -0.21,0.74 -1.05,1.14 l -26.06,12.25 z"
           inkscape:connector-curvature="0"
           style="fill:#000000;stroke-width:0" /><path
           id="path2645"
           d="m 900.19,383.41 h 0.16 0.16 l 0.15,0.01 h 0.08 l 0.08,0.01 h 0.07 l 0.08,0.01 0.07,0.01 0.07,0.01 0.07,0.02 0.07,0.01 0.07,0.02 0.06,0.03 0.06,0.02 0.06,0.03 0.05,0.03 0.06,0.03 0.05,0.04 0.04,0.04 0.04,0.05 0.04,0.05 0.02,0.03 0.02,0.03 0.01,0.03 0.02,0.03 0.01,0.03 0.02,0.03 0.01,0.03 0.01,0.04 0.01,0.04 v 0.03 l 0.01,0.04 0.01,0.04 v 0.05 l 0.01,0.04 v 0.04 0.05 c 0,1 -1.05,1 -1.8,1 h -26.86 c -0.73,0 -1.78,0 -1.78,-1 0,-1 0.89,-1 1.73,-1 z"
           inkscape:connector-curvature="0"
           style="fill:#000000;stroke-width:0" /><path
           id="path2647"
           d="m 940.56,455.73 v 0.05 0.06 0.05 0.05 0.05 0.05 0.04 0.05 0.04 0.04 0.04 0.04 l -0.01,0.04 v 0.03 0.04 0.03 l -0.01,0.07 -0.01,0.06 -0.01,0.05 -0.02,0.05 -0.01,0.05 -0.02,0.04 -0.02,0.04 -0.03,0.03 -0.03,0.04 -0.03,0.02 -0.04,0.03 -0.04,0.02 -0.04,0.02 -0.02,0.01 -0.03,0.01 h -0.02 l -0.03,0.01 -0.03,0.01 h -0.03 l -0.03,0.01 h -0.03 l -0.03,0.01 h -0.04 -0.04 l -0.03,0.01 h -0.04 -0.04 -0.04 -0.05 -0.04 l -0.05,0.01 h -0.04 -0.05 -0.06 -0.05 c -3.09,-3.19 -7.47,-3.19 -9.06,-3.19 v -1.55 c 1,0 3.94,0 6.52,1.3 v -25.81 c 0,-1.8 -0.15,-2.39 -4.63,-2.39 h -1.59 v -1.55 c 1.75,0.16 6.07,0.16 8.06,0.16 2,0 6.33,0 8.08,-0.16 v 1.55 h -1.6 c -4.48,0 -4.64,0.54 -4.64,2.39 z"
           inkscape:connector-curvature="0"
           style="fill:#000000;stroke-width:0" /><polyline
           id="polyline2649"
           points="926,402 950.96,402 950.96,404.04 926,404.04 "
           style="fill:#000000;fill-rule:nonzero;stroke-width:0" /><path
           id="path2651"
           d="m 940.38,373.57 0.37,0.13 0.38,0.15 0.36,0.15 0.36,0.17 0.34,0.18 0.34,0.19 0.33,0.2 0.32,0.22 0.32,0.22 0.3,0.23 0.29,0.24 0.28,0.25 0.27,0.26 0.26,0.27 0.25,0.27 0.24,0.29 0.22,0.29 0.22,0.3 0.2,0.3 0.18,0.32 0.18,0.32 0.16,0.32 0.15,0.33 0.13,0.34 0.12,0.34 0.1,0.34 0.09,0.35 0.07,0.36 0.06,0.36 0.04,0.36 0.03,0.36 v 0.37 c 0,4.08 -4.39,6.88 -9.17,6.88 -5.03,0 -8.81,-3 -8.81,-6.78 0,-1.65 1.09,-2.6 2.55,-2.6 1.53,0 2.53,1.1 2.53,2.55 0,2.48 -2.35,2.48 -3.08,2.48 1.53,2.44 4.83,3.1 6.62,3.1 2.04,0 4.79,-1.1 4.79,-5.58 0,-0.61 -0.11,-3.49 -1.41,-5.69 -1.48,-2.39 -3.19,-2.53 -4.42,-2.59 -0.41,-0.05 -1.6,-0.14 -1.96,-0.14 -0.39,-0.05 -0.75,-0.1 -0.75,-0.6 0,-0.54 0.36,-0.54 1.21,-0.54 h 2.18 c 4.1,0 5.94,-3.39 5.94,-8.29 0,-6.76 -3.44,-8.21 -5.64,-8.21 -2.14,0 -5.87,0.84 -7.61,3.78 1.74,-0.24 3.28,0.86 3.28,2.75 0,1.79 -1.34,2.78 -2.79,2.78 -1.19,0 -2.78,-0.69 -2.78,-2.89 0,-4.53 4.62,-7.81 10.06,-7.81 6.08,0 10.61,4.53 10.61,9.6 0,4.1 -3.14,7.97 -8.31,9.02 z"
           inkscape:connector-curvature="0"
           style="fill:#000000;stroke-width:0" /><path
           id="path2653"
           d="m 1003.5,401.69 h 0.2 0.1 l 0.2,0.01 h 0.1 v 0.01 h 0.1 l 0.1,0.01 0.1,0.01 v 0.01 l 0.1,0.02 0.1,0.01 v 0.02 l 0.1,0.03 0.1,0.02 v 0.03 l 0.1,0.03 v 0.04 l 0.1,0.03 v 0.05 l 0.1,0.04 v 0.05 0.03 0.03 l 0.1,0.03 v 0.03 0.03 0.03 0.04 0.03 0.04 0.04 0.03 0.04 l 0.1,0.05 v 0.04 0.04 0.05 c 0,1 -1,1 -1.8,1 h -26.95 c -0.84,0 -1.73,0 -1.73,-1 0,-1 0.89,-1 1.73,-1 z"
           inkscape:connector-curvature="0"
           style="fill:#000000;stroke-width:0" /><path
           id="path2655"
           d="m 1042.6,401.69 -0.3,-0.19 -0.2,-0.2 -0.2,-0.19 -0.3,-0.2 -0.2,-0.19 -0.2,-0.19 -0.2,-0.19 -0.2,-0.19 -0.2,-0.18 -0.2,-0.18 -0.2,-0.18 -0.1,-0.18 -0.2,-0.17 -0.1,-0.17 -0.2,-0.17 -0.1,-0.16 -0.2,-0.16 -0.1,-0.15 -0.1,-0.15 -0.1,-0.14 -0.1,-0.14 -0.1,-0.13 -0.1,-0.13 -0.1,-0.12 -0.1,-0.12 -0.1,-0.1 v -0.11 l -0.1,-0.09 -0.1,-0.09 v -0.08 l -0.1,-0.07 v -0.07 c -2.2,-3.44 -2.6,-6.58 -2.6,-6.62 0,-0.6 0.6,-0.6 1,-0.6 0.8,0 0.8,0.1 1.1,1 1.1,4.88 4.1,9.06 9.7,11.36 0.6,0.19 0.7,0.3 0.7,0.64 0,0.35 -0.3,0.5 -0.4,0.55 -2.2,0.84 -8.2,3.34 -10.1,11.72 -0.2,0.59 -0.2,0.73 -1,0.73 -0.4,0 -1,0 -1,-0.59 0,-0.1 0.4,-3.24 2.5,-6.58 1,-1.48 2.4,-3.23 4.6,-4.83 h -37 c -0.9,0 -1.8,0 -1.8,-1 0,-1 0.9,-1 1.8,-1 z"
           inkscape:connector-curvature="0"
           style="fill:#000000;stroke-width:0" /><path
           id="path2657"
           d="m 1081.2,378.29 v 0.02 0.03 0.01 0.02 0.01 0.02 0.01 0.02 0.02 0.02 0.02 0.03 0.02 l -0.1,0.03 v 0.03 0.03 0.03 l -0.1,0.04 v 0.02 0.02 0.02 0.02 l -0.1,0.02 v 0.02 0.03 0.02 0.03 l -0.1,0.02 v 0.03 0.03 0.03 l -0.1,0.02 v 0.03 0.04 l -0.1,0.03 v 0.03 0.03 l -0.1,0.04 v 0.04 0.03 l -0.1,0.04 v 0.04 c -6.2,6.28 -7.8,15.69 -7.8,23.31 0,8.67 1.9,17.35 8,23.56 0.6,0.61 0.6,0.71 0.6,0.86 0,0.35 -0.1,0.49 -0.4,0.49 -0.6,0 -5,-3.38 -8,-9.71 -2.5,-5.48 -3.1,-11.01 -3.1,-15.2 0,-3.89 0.5,-9.9 3.3,-15.55 3,-6.12 7.2,-9.35 7.8,-9.35 0.3,0 0.4,0.14 0.4,0.5 z"
           inkscape:connector-curvature="0"
           style="fill:#000000;stroke-width:0" /><path
           id="path2659"
           d="m 1098.7,422.13 v 0.05 0.06 0.05 0.05 0.05 0.05 0.04 0.05 0.04 0.04 0.04 0.04 0.04 0.03 0.04 0.03 0.07 0.06 0.05 l -0.1,0.05 v 0.05 0.04 0.04 0.03 l -0.1,0.03 v 0.03 0.03 l -0.1,0.02 v 0.02 0.01 h -0.1 v 0.01 0.01 0 l -0.1,0.01 v 0.01 0 h -0.1 v 0.01 0 h -0.1 v 0.01 h -0.1 v 0 0 h -0.1 v 0 l -0.1,0.01 v 0 h -0.1 v 0 c -3.1,-3.19 -7.5,-3.19 -9.1,-3.19 v -1.55 c 1,0 3.9,0 6.5,1.3 v -25.81 c 0,-1.8 -0.1,-2.39 -4.6,-2.39 h -1.6 v -1.55 c 1.8,0.15 6.1,0.15 8.1,0.15 2,0 6.3,0 8,-0.15 v 1.55 h -1.6 c -4.4,0 -4.6,0.54 -4.6,2.39 z"
           inkscape:connector-curvature="0"
           style="fill:#000000;stroke-width:0" /><path
           id="path2661"
           d="m 1152.9,401.69 h 0.1 0.2 l 0.2,0.01 v 0 l 0.1,0.01 h 0.1 l 0.1,0.01 v 0.01 l 0.1,0.01 0.1,0.02 0.1,0.01 v 0.02 l 0.1,0.03 v 0.02 l 0.1,0.03 0.1,0.03 v 0.04 l 0.1,0.03 v 0.05 0.04 l 0.1,0.05 v 0.03 0.03 0.03 l 0.1,0.03 v 0.03 0.03 0.04 0.03 0.04 0.04 0.03 0.04 0.05 0.04 0.04 0.05 c 0,1 -0.9,1 -1.7,1 h -27 c -0.8,0 -1.7,0 -1.7,-1 0,-1 0.9,-1 1.7,-1 z"
           inkscape:connector-curvature="0"
           style="fill:#000000;stroke-width:0" /><path
           id="path2663"
           d="m 1186.5,405.29 v 0.13 l 0.1,0.14 v 0.17 l 0.1,0.18 v 0.19 l 0.1,0.21 v 0.21 l 0.1,0.23 0.1,0.23 0.1,0.24 0.1,0.25 0.1,0.24 0.1,0.25 0.1,0.25 0.1,0.25 0.2,0.25 0.1,0.24 0.2,0.24 0.1,0.23 0.2,0.22 0.2,0.22 0.2,0.2 0.2,0.19 0.2,0.17 0.3,0.17 0.2,0.14 0.1,0.06 0.2,0.06 0.1,0.06 0.1,0.05 0.2,0.05 0.1,0.04 0.2,0.03 0.1,0.03 0.2,0.02 0.1,0.02 0.2,0.01 h 0.1 c 0.3,0 1.5,0 2.5,-0.64 -1.4,-0.25 -2.4,-1.5 -2.4,-2.69 0,-0.79 0.6,-1.75 1.9,-1.75 1.1,0 2.7,0.89 2.7,2.89 0,2.6 -2.9,3.28 -4.6,3.28 -2.9,0 -4.7,-2.64 -5.2,-3.78 -1.3,3.28 -4,3.78 -5.4,3.78 -5.2,0 -8.1,-6.42 -8.1,-7.67 0,-0.5 0.5,-0.5 0.7,-0.5 0.3,0 0.5,0.11 0.6,0.55 1.7,5.28 5,6.53 6.7,6.53 0.9,0 2.7,-0.44 2.7,-3.33 0,-1.54 -0.9,-4.89 -2.7,-11.86 -0.8,-3.09 -2.6,-5.18 -4.8,-5.18 -0.3,0 -1.4,0 -2.4,0.65 1.2,0.24 2.3,1.28 2.3,2.69 0,1.34 -1.1,1.73 -1.8,1.73 -1.5,0 -2.8,-1.29 -2.8,-2.89 0,-2.28 2.5,-3.28 4.7,-3.28 3.3,0 5.1,3.49 5.2,3.78 0.6,-1.84 2.4,-3.78 5.4,-3.78 5.1,0 8,6.42 8,7.67 0,0.5 -0.5,0.5 -0.6,0.5 -0.5,0 -0.6,-0.2 -0.7,-0.54 -1.6,-5.33 -5,-6.53 -6.6,-6.53 -1.9,0 -2.7,1.59 -2.7,3.29 0,1.1 0.3,2.19 0.8,4.38 z"
           inkscape:connector-curvature="0"
           style="fill:#000000;stroke-width:0" /><path
           id="path2665"
           d="m 1210,404.84 v 0.04 0.04 0.04 0.04 0.04 0.04 0.04 0.03 0.04 0.03 0.03 0.03 0.03 0.03 0.03 0.02 0.03 0.02 0.02 l -0.1,0.03 v 0.04 0.04 0.03 0.03 0.03 l -0.1,0.03 v 0.02 0.02 l -0.1,0.01 v 0.02 0.01 l -0.1,0.01 v 0.01 0 0.01 h -0.1 v 0 0.01 h -0.1 v 0 0 h -0.1 v 0.01 0 h -0.1 v 0 0 h -0.1 v 0 h -0.1 v 0 h -0.1 c -2.2,-2.2 -5.3,-2.23 -6.8,-2.23 v -1.25 c 0.9,0 3.2,0 5.1,0.96 v -17.76 c 0,-1.16 0,-1.61 -3.5,-1.61 h -1.3 v -1.25 c 0.6,0.03 4.9,0.14 6.2,0.14 1.1,0 5.4,-0.11 6.2,-0.14 v 1.25 h -1.3 c -3.5,0 -3.5,0.45 -3.5,1.61 z"
           inkscape:connector-curvature="0"
           style="fill:#000000;stroke-width:0" /><path
           id="path2667"
           d="m 1235.2,402.69 -0.1,0.37 v 0.39 0.39 0.41 0.84 l -0.1,0.88 -0.1,0.92 -0.1,0.95 -0.1,0.97 -0.2,1 -0.2,1.03 -0.2,1.03 -0.3,1.05 -0.3,1.06 -0.3,1.07 -0.4,1.06 -0.2,0.54 -0.2,0.53 -0.3,0.53 -0.2,0.53 c -3,6.12 -7.3,9.36 -7.8,9.36 -0.3,0 -0.5,-0.19 -0.5,-0.49 0,-0.15 0,-0.25 0.9,-1.15 4.9,-4.92 7.8,-12.85 7.8,-23.27 0,-8.51 -1.9,-17.28 -8.1,-23.56 -0.6,-0.59 -0.6,-0.7 -0.6,-0.84 0,-0.3 0.2,-0.5 0.5,-0.5 0.5,0 5,3.39 7.9,9.71 2.6,5.47 3.2,11 3.2,15.19 z"
           inkscape:connector-curvature="0"
           style="fill:#000000;stroke-width:0" /><path
           id="path2669"
           d="m 1256.6,378.29 v 0.02 0.03 0.01 0.02 0.01 l -0.1,0.02 v 0.01 0.02 0.02 0.02 0.02 0.03 0.02 0.03 l -0.1,0.03 v 0.03 0.03 0.04 l -0.1,0.02 v 0.02 0.02 0.02 0.02 l -0.1,0.02 v 0.03 0.02 0.03 0.02 l -0.1,0.03 v 0.03 0.03 0.02 l -0.1,0.03 v 0.04 0.03 l -0.1,0.03 v 0.03 0.04 l -0.1,0.04 v 0.03 0.04 l -0.1,0.04 c -6.2,6.28 -7.8,15.69 -7.8,23.31 0,8.67 1.9,17.35 8,23.56 0.7,0.61 0.7,0.71 0.7,0.86 0,0.35 -0.2,0.49 -0.5,0.49 -0.5,0 -5,-3.38 -7.9,-9.71 -2.6,-5.48 -3.2,-11.01 -3.2,-15.2 0,-3.89 0.6,-9.9 3.3,-15.55 3,-6.12 7.3,-9.35 7.8,-9.35 0.3,0 0.5,0.14 0.5,0.5 z"
           inkscape:connector-curvature="0"
           style="fill:#000000;stroke-width:0" /><path
           id="path2671"
           d="m 1274,422.13 v 0.05 0.06 0.05 0.05 0.05 0.05 0.04 0.05 0.04 0.04 0.04 0.04 0.04 0.03 0.04 0.03 0.07 0.06 0.05 0.05 0.05 l -0.1,0.04 v 0.04 0.03 0.03 l -0.1,0.03 v 0.03 0.02 l -0.1,0.02 v 0.01 0 l -0.1,0.01 v 0.01 0 0.01 l -0.1,0.01 v 0 0 l -0.1,0.01 v 0 h -0.1 v 0.01 0 h -0.1 v 0 h -0.1 v 0 l -0.1,0.01 v 0 h -0.1 v 0 c -3.1,-3.19 -7.5,-3.19 -9.1,-3.19 v -1.55 c 1,0 4,0 6.5,1.3 v -25.81 c 0,-1.8 -0.1,-2.39 -4.6,-2.39 h -1.6 v -1.55 c 1.8,0.15 6.1,0.15 8.1,0.15 2,0 6.3,0 8.1,-0.15 v 1.55 h -1.6 c -4.5,0 -4.7,0.54 -4.7,2.39 z"
           inkscape:connector-curvature="0"
           style="fill:#000000;stroke-width:0" /><path
           id="path2673"
           d="m 1328.2,401.69 h 0.2 0.1 l 0.2,0.01 h 0.1 v 0.01 h 0.1 l 0.1,0.01 0.1,0.01 v 0.01 l 0.1,0.02 0.1,0.01 v 0.02 l 0.1,0.03 0.1,0.02 v 0.03 l 0.1,0.03 v 0.04 l 0.1,0.03 v 0.05 l 0.1,0.04 v 0.05 0.03 0.03 l 0.1,0.03 v 0.03 0.03 0.03 0.04 0.03 0.04 0.04 l 0.1,0.03 v 0.04 0.05 0.04 0.04 0.05 c 0,1 -0.9,1 -1.8,1 h -26.9 c -0.9,0 -1.8,0 -1.8,-1 0,-1 0.9,-1 1.8,-1 z"
           inkscape:connector-curvature="0"
           style="fill:#000000;stroke-width:0" /><path
           id="path2675"
           d="m 1361.8,405.29 0.1,0.13 v 0.14 0.17 l 0.1,0.18 v 0.19 l 0.1,0.21 0.1,0.21 v 0.23 l 0.1,0.23 0.1,0.24 0.1,0.25 0.1,0.24 0.1,0.25 0.1,0.25 0.2,0.25 0.1,0.25 0.1,0.24 0.2,0.24 0.2,0.23 0.1,0.22 0.2,0.22 0.2,0.2 0.2,0.19 0.3,0.17 0.2,0.17 0.2,0.14 0.2,0.06 0.1,0.06 0.1,0.06 0.2,0.05 0.1,0.05 0.1,0.04 0.2,0.03 0.1,0.03 0.2,0.02 0.1,0.02 0.2,0.01 h 0.2 c 0.2,0 1.4,0 2.4,-0.64 -1.3,-0.25 -2.3,-1.5 -2.3,-2.69 0,-0.79 0.5,-1.75 1.9,-1.75 1,0 2.6,0.89 2.6,2.89 0,2.6 -2.9,3.28 -4.6,3.28 -2.9,0 -4.6,-2.64 -5.2,-3.78 -1.3,3.28 -4,3.78 -5.4,3.78 -5.2,0 -8,-6.42 -8,-7.67 0,-0.5 0.5,-0.5 0.6,-0.5 0.4,0 0.5,0.11 0.6,0.55 1.7,5.28 5,6.53 6.7,6.53 1,0 2.7,-0.44 2.7,-3.33 0,-1.54 -0.9,-4.89 -2.7,-11.86 -0.8,-3.09 -2.5,-5.18 -4.7,-5.18 -0.3,0 -1.5,0 -2.5,0.65 1.2,0.24 2.3,1.28 2.3,2.69 0,1.34 -1.1,1.73 -1.8,1.73 -1.5,0 -2.8,-1.29 -2.8,-2.89 0,-2.28 2.5,-3.28 4.7,-3.28 3.3,0 5.1,3.49 5.3,3.78 0.5,-1.84 2.3,-3.78 5.3,-3.78 5.2,0 8,6.42 8,7.67 0,0.5 -0.5,0.5 -0.6,0.5 -0.4,0 -0.5,-0.2 -0.6,-0.54 -1.7,-5.33 -5.1,-6.53 -6.7,-6.53 -1.9,0 -2.7,1.59 -2.7,3.29 0,1.1 0.3,2.19 0.8,4.38 z"
           inkscape:connector-curvature="0"
           style="fill:#000000;stroke-width:0" /><path
           id="path2677"
           d="m 1391.2,389.02 h -1.1 c -0.2,-0.76 -0.5,-2.82 -1,-3.17 -0.2,-0.2 -2.9,-0.2 -3.4,-0.2 h -6.4 c 3.6,3.23 4.9,4.2 6.9,5.84 2.6,2.06 5,4.22 5,7.53 0,4.22 -3.6,6.8 -8.1,6.8 -4.3,0 -7.3,-3.03 -7.3,-6.23 0,-1.79 1.5,-1.96 1.9,-1.96 0.8,0 1.8,0.6 1.8,1.85 0,0.62 -0.2,1.84 -2,1.84 1.1,2.47 3.4,3.23 5.1,3.23 3.5,0 5.3,-2.7 5.3,-5.53 0,-3.03 -2.2,-5.43 -3.3,-6.68 l -8.4,-8.3 c -0.4,-0.31 -0.4,-0.39 -0.4,-1.36 h 14.4 z"
           inkscape:connector-curvature="0"
           style="fill:#000000;stroke-width:0" /><path
           id="path2679"
           d="m 1410.5,402.69 v 0.37 0.39 0.39 l -0.1,0.41 v 0.84 l -0.1,0.88 v 0.92 l -0.1,0.95 -0.2,0.97 -0.1,1 -0.2,1.03 -0.3,1.03 -0.2,1.05 -0.3,1.06 -0.4,1.07 -0.4,1.06 -0.2,0.54 -0.2,0.53 -0.3,0.53 -0.2,0.53 c -3,6.12 -7.3,9.36 -7.8,9.36 -0.3,0 -0.5,-0.19 -0.5,-0.49 0,-0.15 0,-0.25 1,-1.15 4.9,-4.92 7.7,-12.85 7.7,-23.27 0,-8.51 -1.8,-17.28 -8,-23.56 -0.7,-0.59 -0.7,-0.7 -0.7,-0.84 0,-0.3 0.2,-0.5 0.5,-0.5 0.5,0 5,3.39 7.9,9.71 2.6,5.47 3.2,11 3.2,15.19 z"
           inkscape:connector-curvature="0"
           style="fill:#000000;stroke-width:0" /><path
           id="path2681"
           d="m 1433.2,402.69 v 0.14 0.13 0.13 0.13 0.13 l -0.1,0.12 v 0.13 l -0.1,0.12 v 0.11 l -0.1,0.12 v 0.11 l -0.1,0.11 -0.1,0.1 -0.1,0.1 v 0.09 l -0.1,0.1 -0.1,0.08 -0.1,0.09 -0.1,0.08 -0.1,0.07 -0.1,0.07 -0.1,0.06 -0.2,0.06 -0.1,0.05 -0.1,0.05 -0.1,0.04 -0.1,0.04 -0.2,0.03 -0.1,0.02 -0.1,0.02 -0.2,0.01 h -0.1 c -1.4,0 -2.6,-1.19 -2.6,-2.64 0,-1.44 1.2,-2.64 2.6,-2.64 1.5,0 2.6,1.2 2.6,2.64 z"
           inkscape:connector-curvature="0"
           style="fill:#000000;stroke-width:0" /><path
           id="path2683"
           d="m 1455.3,402.69 v 0.14 0.13 0.13 0.13 l -0.1,0.13 v 0.12 0.13 l -0.1,0.12 v 0.11 l -0.1,0.12 -0.1,0.11 v 0.11 l -0.1,0.1 -0.1,0.1 -0.1,0.09 -0.1,0.1 v 0.08 l -0.1,0.09 -0.1,0.08 -0.1,0.07 -0.2,0.07 -0.1,0.06 -0.1,0.06 -0.1,0.05 -0.1,0.05 -0.1,0.04 -0.2,0.04 -0.1,0.03 -0.1,0.02 -0.2,0.02 -0.1,0.01 h -0.1 c -1.5,0 -2.7,-1.19 -2.7,-2.64 0,-1.44 1.2,-2.64 2.7,-2.64 1.4,0 2.6,1.2 2.6,2.64 z"
           inkscape:connector-curvature="0"
           style="fill:#000000;stroke-width:0" /><path
           id="path2685"
           d="m 1477.4,402.69 v 0.14 0.13 0.13 l -0.1,0.13 v 0.13 0.12 l -0.1,0.13 v 0.12 l -0.1,0.11 v 0.12 l -0.1,0.11 -0.1,0.11 v 0.1 l -0.1,0.1 -0.1,0.09 -0.1,0.1 -0.1,0.08 -0.1,0.09 -0.1,0.08 -0.1,0.07 -0.1,0.07 -0.1,0.06 -0.1,0.06 -0.1,0.05 -0.1,0.05 -0.2,0.04 -0.1,0.04 -0.1,0.03 -0.1,0.02 -0.2,0.02 -0.1,0.01 h -0.1 c -1.5,0 -2.7,-1.19 -2.7,-2.64 0,-1.44 1.2,-2.64 2.7,-2.64 1.4,0 2.6,1.2 2.6,2.64 z"
           inkscape:connector-curvature="0"
           style="fill:#000000;stroke-width:0" /><path
           id="path2687"
           d="m 1506.6,378.29 v 0.02 0.03 0.01 0.02 0.01 0.02 0.01 0.02 0.02 0.02 0.02 0.03 l -0.1,0.02 v 0.03 0.03 0.03 0.03 l -0.1,0.04 v 0.02 0.02 0.02 0.02 l -0.1,0.02 v 0.02 0.03 0.02 0.03 l -0.1,0.02 v 0.03 0.03 0.03 l -0.1,0.02 v 0.03 0.04 l -0.1,0.03 v 0.03 0.03 l -0.1,0.04 v 0.04 0.03 l -0.1,0.04 v 0.04 c -6.2,6.28 -7.8,15.69 -7.8,23.31 0,8.67 1.9,17.35 8,23.56 0.6,0.61 0.6,0.71 0.6,0.86 0,0.35 -0.2,0.49 -0.4,0.49 -0.5,0 -5,-3.38 -8,-9.71 -2.5,-5.48 -3.1,-11.01 -3.1,-15.2 0,-3.89 0.5,-9.9 3.3,-15.55 2.9,-6.12 7.3,-9.35 7.8,-9.35 0.2,0 0.4,0.14 0.4,0.5 z"
           inkscape:connector-curvature="0"
           style="fill:#000000;stroke-width:0" /><path
           id="path2689"
           d="m 1524.1,422.13 v 0.05 0.06 0.05 0.05 0.05 0.05 0.04 0.05 0.04 0.04 0.04 0.04 0.04 0.03 0.04 0.03 0.07 0.06 0.05 l -0.1,0.05 v 0.05 0.04 0.04 0.03 l -0.1,0.03 v 0.03 0.03 l -0.1,0.02 v 0.02 0.01 h -0.1 v 0.01 0.01 0 l -0.1,0.01 v 0.01 0 h -0.1 v 0.01 0 h -0.1 v 0.01 h -0.1 v 0 0 h -0.1 v 0 l -0.1,0.01 v 0 h -0.1 v 0 c -3.1,-3.19 -7.5,-3.19 -9.1,-3.19 v -1.55 c 1,0 3.9,0 6.5,1.3 v -25.81 c 0,-1.8 -0.1,-2.39 -4.6,-2.39 h -1.6 v -1.55 c 1.7,0.15 6.1,0.15 8.1,0.15 2,0 6.3,0 8,-0.15 v 1.55 h -1.5 c -4.5,0 -4.7,0.54 -4.7,2.39 z"
           inkscape:connector-curvature="0"
           style="fill:#000000;stroke-width:0" /><path
           id="path2691"
           d="m 1578.3,401.69 h 0.1 0.2 l 0.2,0.01 v 0 l 0.1,0.01 h 0.1 l 0.1,0.01 v 0.01 l 0.1,0.01 0.1,0.02 0.1,0.01 v 0.02 l 0.1,0.03 v 0.02 l 0.1,0.03 0.1,0.03 v 0.04 l 0.1,0.03 v 0.05 0.04 l 0.1,0.05 v 0.03 0.03 0.03 l 0.1,0.03 v 0.03 0.03 0.04 0.03 0.04 0.04 0.03 0.04 0.05 0.04 0.04 0.05 c 0,1 -0.9,1 -1.7,1 h -27 c -0.8,0 -1.7,0 -1.7,-1 0,-1 0.9,-1 1.7,-1 z"
           inkscape:connector-curvature="0"
           style="fill:#000000;stroke-width:0" /><path
           id="path2693"
           d="m 1611.9,405.29 v 0.13 l 0.1,0.14 v 0.17 l 0.1,0.18 v 0.19 l 0.1,0.21 v 0.21 l 0.1,0.23 0.1,0.23 0.1,0.24 0.1,0.25 0.1,0.24 0.1,0.25 0.1,0.25 0.1,0.25 0.2,0.25 0.1,0.24 0.2,0.24 0.1,0.23 0.2,0.22 0.2,0.22 0.2,0.2 0.2,0.19 0.2,0.17 0.3,0.17 0.2,0.14 0.1,0.06 0.2,0.06 0.1,0.06 0.1,0.05 0.2,0.05 0.1,0.04 0.2,0.03 0.1,0.03 0.2,0.02 0.1,0.02 0.2,0.01 h 0.1 c 0.3,0 1.5,0 2.5,-0.64 -1.4,-0.25 -2.4,-1.5 -2.4,-2.69 0,-0.79 0.6,-1.75 1.9,-1.75 1.1,0 2.7,0.89 2.7,2.89 0,2.6 -2.9,3.28 -4.6,3.28 -2.9,0 -4.7,-2.64 -5.2,-3.78 -1.3,3.28 -4,3.78 -5.4,3.78 -5.2,0 -8.1,-6.42 -8.1,-7.67 0,-0.5 0.5,-0.5 0.6,-0.5 0.4,0 0.6,0.11 0.7,0.55 1.7,5.28 5,6.53 6.7,6.53 0.9,0 2.6,-0.44 2.6,-3.33 0,-1.54 -0.8,-4.89 -2.6,-11.86 -0.8,-3.09 -2.6,-5.18 -4.8,-5.18 -0.3,0 -1.4,0 -2.5,0.65 1.3,0.24 2.4,1.28 2.4,2.69 0,1.34 -1.1,1.73 -1.9,1.73 -1.5,0 -2.7,-1.29 -2.7,-2.89 0,-2.28 2.5,-3.28 4.7,-3.28 3.3,0 5.1,3.49 5.2,3.78 0.6,-1.84 2.4,-3.78 5.4,-3.78 5.1,0 8,6.42 8,7.67 0,0.5 -0.5,0.5 -0.6,0.5 -0.5,0 -0.6,-0.2 -0.7,-0.54 -1.6,-5.33 -5,-6.53 -6.6,-6.53 -1.9,0 -2.8,1.59 -2.8,3.29 0,1.1 0.4,2.19 0.9,4.38 z"
           inkscape:connector-curvature="0"
           style="fill:#000000;stroke-width:0" /><path
           id="path2695"
           d="m 1628,384.87 v -0.05 l -0.1,-0.04 v -0.05 -0.05 -0.05 -0.05 -0.05 -0.05 l -0.1,-0.11 v -0.12 -0.11 l -0.1,-0.11 v -0.05 -0.05 -0.05 -0.05 -0.05 -0.04 -0.05 -0.04 -0.04 l -0.1,-0.03 v -0.03 -0.03 -0.02 -0.03 0 -0.01 -0.01 0 c 0,-0.77 0.6,-1.11 1.2,-1.11 0.6,0 1.2,0.45 1.4,0.76 0.1,0.31 0.4,1.42 0.6,2.16 0.2,0.65 0.5,2.26 0.8,3.14 0.2,0.76 0.4,1.53 0.6,2.33 0.3,1.43 0.4,1.7 1.4,3.14 1,1.39 2.6,3.2 5.2,3.2 2.1,0 2.1,-1.78 2.1,-2.44 0,-2.09 -1.5,-5.95 -2.1,-7.42 -0.4,-0.98 -0.5,-1.3 -0.5,-1.89 0,-1.84 1.6,-2.98 3.3,-2.98 3.5,0 5,4.79 5,5.32 0,0.46 -0.4,0.46 -0.5,0.46 -0.5,0 -0.5,-0.21 -0.7,-0.6 -0.8,-2.78 -2.3,-4.22 -3.7,-4.22 -0.7,0 -0.8,0.49 -0.8,1.22 0,0.8 0.1,1.25 0.8,2.83 0.4,1.08 1.8,4.77 1.8,6.72 0,3.39 -2.7,3.97 -4.5,3.97 -2.9,0 -4.9,-1.77 -5.9,-3.16 -0.3,2.39 -2.3,3.16 -3.7,3.16 -1.5,0 -2.3,-1.08 -2.8,-1.88 -0.8,-1.28 -1.2,-3.28 -1.2,-3.45 0,-0.45 0.4,-0.45 0.5,-0.45 0.5,0 0.6,0.11 0.8,1.04 0.5,2.07 1.2,3.77 2.6,3.77 0.9,0 1.1,-0.77 1.1,-1.7 0,-0.67 -0.3,-1.96 -0.6,-2.89 -0.2,-0.96 -0.5,-2.38 -0.7,-3.14 z"
           inkscape:connector-curvature="0"
           style="fill:#000000;stroke-width:0" /><path
           id="path2697"
           d="m 1665.3,402.69 v 0.37 0.39 0.39 0.41 0.84 l -0.1,0.88 -0.1,0.92 -0.1,0.95 -0.1,0.97 -0.2,1 -0.2,1.03 -0.2,1.03 -0.3,1.05 -0.3,1.06 -0.3,1.07 -0.4,1.06 -0.2,0.54 -0.2,0.53 -0.3,0.53 -0.2,0.53 c -3,6.12 -7.3,9.36 -7.8,9.36 -0.3,0 -0.5,-0.19 -0.5,-0.49 0,-0.15 0,-0.25 0.9,-1.15 4.9,-4.92 7.8,-12.85 7.8,-23.27 0,-8.51 -1.9,-17.28 -8.1,-23.56 -0.6,-0.59 -0.6,-0.7 -0.6,-0.84 0,-0.3 0.2,-0.5 0.5,-0.5 0.5,0 5,3.39 7.9,9.71 2.6,5.47 3.1,11 3.1,15.19 z"
           inkscape:connector-curvature="0"
           style="fill:#000000;stroke-width:0" /><path
           id="path2699"
           d="m 1717.7,406.38 v 0.03 l 0.1,0.03 v 0.02 l 0.1,0.03 0.1,0.03 v 0.03 l 0.1,0.03 v 0.03 l 0.1,0.03 v 0.04 0.03 l 0.1,0.03 v 0.03 l 0.1,0.04 v 0.03 0.03 l 0.1,0.04 v 0.03 0.04 0.03 0.04 l 0.1,0.03 v 0.04 0.04 0.04 0.03 0.04 0.04 l 0.1,0.04 v 0.04 0.04 0.04 c 0,0.5 -0.3,0.8 -1,1.16 l -27.5,12.95 c -0.7,0.35 -0.9,0.35 -1,0.35 -0.6,0 -1,-0.46 -1,-1 0,-0.6 0.4,-0.85 1,-1.1 l 26.1,-12.31 -26,-12.3 c -1,-0.45 -1.1,-0.84 -1.1,-1.14 0,-0.56 0.5,-1 1,-1 0.2,0 0.2,0 0.9,0.35 z"
           inkscape:connector-curvature="0"
           style="fill:#000000;stroke-width:0" /><path
           id="path2701"
           d="m 1716.9,383.41 h 0.2 0.1 l 0.2,0.01 h 0.1 v 0.01 h 0.1 l 0.1,0.01 0.1,0.01 v 0.01 l 0.1,0.02 0.1,0.01 v 0.02 l 0.1,0.03 0.1,0.02 v 0.03 l 0.1,0.03 v 0.03 l 0.1,0.04 v 0.04 l 0.1,0.05 v 0.05 0.03 0.03 l 0.1,0.03 v 0.03 0.03 0.03 0.03 0.04 0.04 0.03 0.04 0.04 l 0.1,0.05 v 0.04 0.04 0.05 c 0,1 -1.1,1 -1.8,1 H 1690 c -0.7,0 -1.8,0 -1.8,-1 0,-1 0.9,-1 1.7,-1 z"
           inkscape:connector-curvature="0"
           style="fill:#000000;stroke-width:0" /><path
           id="path2703"
           d="m 1749,427.68 5.2,5.13 c 7.8,6.87 10.8,9.56 10.8,14.55 0,5.68 -4.5,9.67 -10.6,9.67 -5.6,0 -9.3,-4.6 -9.3,-9.03 0,-2.79 2.5,-2.79 2.7,-2.79 0.8,0 2.6,0.6 2.6,2.65 0,1.29 -0.9,2.59 -2.7,2.59 -0.4,0 -0.5,0 -0.6,-0.05 1.1,3.24 3.8,5.08 6.7,5.08 4.5,0 6.7,-4.05 6.7,-8.12 0,-3.99 -2.5,-7.93 -5.3,-11.02 l -9.5,-10.66 c -0.6,-0.54 -0.6,-0.64 -0.6,-1.84 h 18.5 l 1.4,8.67 h -1.2 c -0.3,-1.5 -0.6,-3.69 -1.1,-4.44 -0.4,-0.39 -3.7,-0.39 -4.8,-0.39 z"
           inkscape:connector-curvature="0"
           style="fill:#000000;stroke-width:0" /><polyline
           id="polyline2705"
           points="1743,402 1768,402 1768,404.04 1743,404.04 "
           style="fill:#000000;fill-rule:nonzero;stroke-width:0" /><path
           id="path2707"
           d="m 1757.1,373.57 0.4,0.13 0.3,0.15 0.4,0.15 0.4,0.17 0.3,0.18 0.3,0.19 0.4,0.2 0.3,0.22 0.3,0.22 0.3,0.23 0.3,0.24 0.3,0.25 0.3,0.26 0.2,0.27 0.3,0.27 0.2,0.29 0.2,0.29 0.2,0.3 0.2,0.3 0.2,0.32 0.2,0.32 0.2,0.32 0.1,0.33 0.1,0.34 0.2,0.34 0.1,0.34 0.1,0.35 v 0.36 l 0.1,0.36 v 0.36 l 0.1,0.36 v 0.37 c 0,4.08 -4.4,6.88 -9.2,6.88 -5,0 -8.8,-3 -8.8,-6.78 0,-1.65 1.1,-2.6 2.5,-2.6 1.6,0 2.6,1.1 2.6,2.55 0,2.48 -2.4,2.48 -3.1,2.48 1.5,2.44 4.8,3.1 6.6,3.1 2,0 4.8,-1.1 4.8,-5.58 0,-0.61 -0.1,-3.49 -1.4,-5.69 -1.5,-2.39 -3.2,-2.53 -4.4,-2.59 -0.5,-0.05 -1.6,-0.14 -2,-0.14 -0.4,-0.05 -0.8,-0.1 -0.8,-0.6 0,-0.54 0.4,-0.54 1.3,-0.54 h 2.1 c 4.1,0 6,-3.39 6,-8.29 0,-6.76 -3.5,-8.21 -5.7,-8.21 -2.1,0 -5.8,0.84 -7.6,3.78 1.8,-0.24 3.3,0.86 3.3,2.75 0,1.79 -1.3,2.78 -2.8,2.78 -1.2,0 -2.8,-0.69 -2.8,-2.89 0,-4.53 4.7,-7.81 10.1,-7.81 6.1,0 10.6,4.53 10.6,9.6 0,4.1 -3.1,7.97 -8.3,9.02 z"
           inkscape:connector-curvature="0"
           style="fill:#000000;stroke-width:0" /></g>    </g>
  </g>
</svg>
