<?xml version="1.0" encoding="UTF-8" standalone="no"?>
<svg
   xmlns:dc="http://purl.org/dc/elements/1.1/"
   xmlns:cc="http://creativecommons.org/ns#"
   xmlns:rdf="http://www.w3.org/1999/02/22-rdf-syntax-ns#"
   xmlns:svg="http://www.w3.org/2000/svg"
   xmlns="http://www.w3.org/2000/svg"
   xmlns:xlink="http://www.w3.org/1999/xlink"
   xmlns:sodipodi="http://sodipodi.sourceforge.net/DTD/sodipodi-0.dtd"
   xmlns:inkscape="http://www.inkscape.org/namespaces/inkscape"
   sodipodi:docname="probability-and-statistics-cover.svg"
   inkscape:version="1.0 (4035a4fb49, 2020-05-01)"
   id="svg4531"
   version="1.1"
   viewBox="0 0 121.70224 30.186304"
   height="30.186304mm"
   width="121.70224mm">
  <defs
     id="defs4525">
    <g
       id="g9188">
      <symbol
         id="symbol4791"
         overflow="visible">
        <path
           id="path6643"
           d=""
           style="stroke:none" />
      </symbol>
      <symbol
         id="symbol196"
         overflow="visible">
        <path
           id="path3092"
           d="M 1.765625,-6.921875 0.328125,-6.8125 V -6.5 c 0.703125,0 0.78125,0.0625 0.78125,0.5625 V -0.75 c 0,0.4375 -0.109375,0.4375 -0.78125,0.4375 V 0 C 0.65625,-0.015625 1.1875,-0.03125 1.4375,-0.03125 c 0.25,0 0.734375,0.015625 1.109375,0.03125 v -0.3125 c -0.671875,0 -0.78125,0 -0.78125,-0.4375 z m 0,0"
           style="stroke:none" />
      </symbol>
      <symbol
         id="symbol9653"
         overflow="visible">
        <path
           id="path6280"
           d="M 1.765625,-4.40625 0.375,-4.296875 v 0.3125 c 0.640625,0 0.734375,0.0625 0.734375,0.546875 V -0.75 c 0,0.4375 -0.109375,0.4375 -0.78125,0.4375 V 0 C 0.640625,-0.015625 1.1875,-0.03125 1.421875,-0.03125 1.78125,-0.03125 2.125,-0.015625 2.46875,0 v -0.3125 c -0.671875,0 -0.703125,-0.046875 -0.703125,-0.4375 z m 0.03125,-1.734375 c 0,-0.3125 -0.234375,-0.53125 -0.515625,-0.53125 -0.3125,0 -0.53125,0.265625 -0.53125,0.53125 0,0.265625 0.21875,0.53125 0.53125,0.53125 0.28125,0 0.515625,-0.21875 0.515625,-0.53125 z m 0,0"
           style="stroke:none" />
      </symbol>
      <symbol
         id="symbol755"
         overflow="visible">
        <path
           id="path7366"
           d="M 1.09375,-3.421875 V -0.75 c 0,0.4375 -0.109375,0.4375 -0.78125,0.4375 V 0 c 0.359375,-0.015625 0.859375,-0.03125 1.140625,-0.03125 0.25,0 0.765625,0.015625 1.109375,0.03125 v -0.3125 c -0.671875,0 -0.78125,0 -0.78125,-0.4375 V -2.59375 C 1.78125,-3.625 2.5,-4.1875 3.125,-4.1875 c 0.640625,0 0.75,0.53125 0.75,1.109375 V -0.75 c 0,0.4375 -0.109375,0.4375 -0.78125,0.4375 V 0 c 0.34375,-0.015625 0.859375,-0.03125 1.125,-0.03125 0.25,0 0.78125,0.015625 1.109375,0.03125 v -0.3125 c -0.65625,0 -0.765625,0 -0.765625,-0.4375 v -1.84375 c 0,-1.03125 0.703125,-1.59375 1.34375,-1.59375 0.625,0 0.734375,0.53125 0.734375,1.109375 V -0.75 c 0,0.4375 -0.109375,0.4375 -0.78125,0.4375 V 0 c 0.34375,-0.015625 0.859375,-0.03125 1.125,-0.03125 0.265625,0 0.78125,0.015625 1.125,0.03125 v -0.3125 c -0.515625,0 -0.765625,0 -0.78125,-0.296875 v -1.90625 c 0,-0.859375 0,-1.15625 -0.3125,-1.515625 -0.140625,-0.171875 -0.46875,-0.375 -1.046875,-0.375 -0.828125,0 -1.28125,0.59375 -1.4375,0.984375 C 4.390625,-4.296875 3.65625,-4.40625 3.203125,-4.40625 2.46875,-4.40625 2,-3.984375 1.71875,-3.359375 V -4.40625 L 0.3125,-4.296875 v 0.3125 c 0.703125,0 0.78125,0.0625 0.78125,0.5625 z m 0,0"
           style="stroke:none" />
      </symbol>
      <symbol
         id="symbol8545"
         overflow="visible">
        <path
           id="path8683"
           d="m 2.265625,-3.15625 h 1.6875 c 1.1875,0 2.265625,-0.796875 2.265625,-1.796875 C 6.21875,-5.9375 5.234375,-6.8125 3.875,-6.8125 H 0.34375 V -6.5 h 0.25 c 0.765625,0 0.78125,0.109375 0.78125,0.46875 v 5.25 c 0,0.359375 -0.015625,0.46875 -0.78125,0.46875 h -0.25 V 0 c 0.359375,-0.03125 1.09375,-0.03125 1.46875,-0.03125 0.375,0 1.125,0 1.484375,0.03125 v -0.3125 h -0.25 c -0.765625,0 -0.78125,-0.109375 -0.78125,-0.46875 z m -0.03125,-0.25 v -2.6875 C 2.234375,-6.4375 2.25,-6.5 2.71875,-6.5 h 0.890625 c 1.578125,0 1.578125,1.0625 1.578125,1.546875 0,0.46875 0,1.546875 -1.578125,1.546875 z m 0,0"
           style="stroke:none" />
      </symbol>
      <symbol
         id="symbol7672"
         overflow="visible">
        <path
           id="path7983"
           d="M 1.671875,-3.3125 V -4.40625 L 0.28125,-4.296875 v 0.3125 c 0.703125,0 0.78125,0.0625 0.78125,0.5625 V -0.75 c 0,0.4375 -0.109375,0.4375 -0.78125,0.4375 V 0 c 0.390625,-0.015625 0.859375,-0.03125 1.140625,-0.03125 0.390625,0 0.859375,0 1.265625,0.03125 V -0.3125 H 2.46875 c -0.734375,0 -0.75,-0.109375 -0.75,-0.46875 V -2.3125 c 0,-0.984375 0.421875,-1.875 1.171875,-1.875 0.0625,0 0.09375,0 0.109375,0.015625 -0.03125,0 -0.234375,0.125 -0.234375,0.390625 0,0.265625 0.21875,0.421875 0.4375,0.421875 0.171875,0 0.421875,-0.125 0.421875,-0.4375 0,-0.3125 -0.3125,-0.609375 -0.734375,-0.609375 -0.734375,0 -1.09375,0.671875 -1.21875,1.09375 z m 0,0"
           style="stroke:none" />
      </symbol>
      <symbol
         id="symbol6421"
         overflow="visible">
        <path
           id="path6793"
           d="M 4.28125,-5.578125 V -5.875 H 0.6875 v 0.296875 z m 0,0"
           style="stroke:none" />
      </symbol>
      <symbol
         id="symbol3029"
         overflow="visible">
        <path
           id="path1072"
           d="m 6.84375,-3.265625 c 0.15625,0 0.34375,0 0.34375,-0.1875 C 7.1875,-3.65625 7,-3.65625 6.859375,-3.65625 h -5.96875 c -0.140625,0 -0.328125,0 -0.328125,0.203125 0,0.1875 0.1875,0.1875 0.328125,0.1875 z m 0.015625,1.9375 c 0.140625,0 0.328125,0 0.328125,-0.203125 0,-0.1875 -0.1875,-0.1875 -0.34375,-0.1875 H 0.890625 c -0.140625,0 -0.328125,0 -0.328125,0.1875 0,0.203125 0.1875,0.203125 0.328125,0.203125 z m 0,0"
           style="stroke:none" />
      </symbol>
      <symbol
         id="symbol1772"
         overflow="visible">
        <path
           id="path9400"
           d="M 3.984375,-1.34375 C 5.515625,-1.46875 6.625,-2.390625 6.625,-3.40625 6.625,-4.4375 5.5,-5.34375 3.984375,-5.46875 v -0.546875 c 0,-0.34375 0,-0.484375 0.9375,-0.484375 H 5.25 v -0.3125 c -0.359375,0.03125 -1.265625,0.03125 -1.6875,0.03125 -0.40625,0 -1.328125,0 -1.6875,-0.03125 V -6.5 h 0.328125 c 0.953125,0 0.953125,0.125 0.953125,0.484375 V -5.46875 C 1.625,-5.3125 0.5625,-4.390625 0.5625,-3.40625 c 0,1.03125 1.109375,1.90625 2.59375,2.0625 v 0.5625 c 0,0.328125 0,0.46875 -0.953125,0.46875 H 1.875 V 0 c 0.359375,-0.03125 1.28125,-0.03125 1.6875,-0.03125 0.40625,0 1.328125,0 1.6875,0.03125 V -0.3125 H 4.921875 c -0.9375,0 -0.9375,-0.125 -0.9375,-0.46875 z M 3.15625,-1.578125 C 1.734375,-1.765625 1.5625,-2.78125 1.5625,-3.40625 c 0,-0.515625 0.09375,-1.625 1.59375,-1.828125 z M 3.984375,-5.25 c 1.375,0.171875 1.640625,1.078125 1.640625,1.84375 0,0.59375 -0.140625,1.65625 -1.640625,1.84375 z m 0,0"
           style="stroke:none" />
      </symbol>
      <symbol
         id="symbol9049"
         overflow="visible">
        <path
           id="path5358"
           d="m 3.296875,2.390625 c 0,-0.03125 0,-0.046875 -0.171875,-0.21875 C 1.890625,0.921875 1.5625,-0.96875 1.5625,-2.5 c 0,-1.734375 0.375,-3.46875 1.609375,-4.703125 0.125,-0.125 0.125,-0.140625 0.125,-0.171875 0,-0.078125 -0.03125,-0.109375 -0.09375,-0.109375 -0.109375,0 -1,0.6875 -1.59375,1.953125 -0.5,1.09375 -0.625,2.203125 -0.625,3.03125 0,0.78125 0.109375,1.984375 0.65625,3.125 C 2.25,1.84375 3.09375,2.5 3.203125,2.5 c 0.0625,0 0.09375,-0.03125 0.09375,-0.109375 z m 0,0"
           style="stroke:none" />
      </symbol>
      <symbol
         id="symbol8892"
         overflow="visible">
        <path
           id="path1467"
           d="m 2.875,-2.5 c 0,-0.765625 -0.109375,-1.96875 -0.65625,-3.109375 -0.59375,-1.21875 -1.453125,-1.875 -1.546875,-1.875 -0.0625,0 -0.109375,0.046875 -0.109375,0.109375 0,0.03125 0,0.046875 0.1875,0.234375 0.984375,0.984375 1.546875,2.5625 1.546875,4.640625 0,1.71875 -0.359375,3.46875 -1.59375,4.71875 C 0.5625,2.34375 0.5625,2.359375 0.5625,2.390625 0.5625,2.453125 0.609375,2.5 0.671875,2.5 0.765625,2.5 1.671875,1.8125 2.25,0.546875 2.765625,-0.546875 2.875,-1.65625 2.875,-2.5 Z m 0,0"
           style="stroke:none" />
      </symbol>
      <symbol
         id="symbol1851"
         overflow="visible">
        <path
           id="path9445"
           d=""
           style="stroke:none" />
      </symbol>
      <symbol
         id="symbol6196"
         overflow="visible">
        <path
           id="path7139"
           d="m 0.84375,-0.4375 c -0.015625,0.09375 -0.0625,0.265625 -0.0625,0.28125 0,0.15625 0.125,0.21875 0.234375,0.21875 0.125,0 0.234375,-0.078125 0.28125,-0.140625 0.03125,-0.0625 0.078125,-0.296875 0.125,-0.4375 0.03125,-0.125 0.109375,-0.453125 0.140625,-0.625 0.046875,-0.15625 0.09375,-0.3125 0.125,-0.46875 0.078125,-0.28125 0.09375,-0.34375 0.296875,-0.625 C 2.171875,-2.515625 2.5,-2.875 3.03125,-2.875 c 0.390625,0 0.40625,0.359375 0.40625,0.484375 0,0.421875 -0.296875,1.1875 -0.40625,1.484375 -0.078125,0.203125 -0.109375,0.265625 -0.109375,0.375 0,0.375 0.296875,0.59375 0.65625,0.59375 0.703125,0 1,-0.953125 1,-1.0625 0,-0.09375 -0.078125,-0.09375 -0.109375,-0.09375 -0.09375,0 -0.09375,0.046875 -0.125,0.125 C 4.1875,-0.40625 3.875,-0.125 3.609375,-0.125 c -0.15625,0 -0.1875,-0.09375 -0.1875,-0.25 0,-0.15625 0.046875,-0.25 0.171875,-0.5625 0.078125,-0.21875 0.359375,-0.953125 0.359375,-1.34375 0,-0.671875 -0.53125,-0.796875 -0.90625,-0.796875 -0.578125,0 -0.96875,0.359375 -1.171875,0.640625 -0.046875,-0.484375 -0.453125,-0.640625 -0.75,-0.640625 -0.296875,0 -0.453125,0.21875 -0.546875,0.375 -0.15625,0.265625 -0.25,0.65625 -0.25,0.703125 0,0.078125 0.09375,0.078125 0.125,0.078125 0.09375,0 0.09375,-0.015625 0.140625,-0.203125 0.109375,-0.40625 0.25,-0.75 0.515625,-0.75 0.1875,0 0.234375,0.15625 0.234375,0.34375 0,0.125 -0.0625,0.390625 -0.125,0.578125 -0.046875,0.1875 -0.109375,0.46875 -0.140625,0.625 z m 0,0"
           style="stroke:none" />
      </symbol>
      <symbol
         id="symbol1031"
         overflow="visible">
        <path
           id="path2733"
           d="m 3.484375,-4.921875 c 0.046875,-0.09375 0.046875,-0.109375 0.046875,-0.125 0,-0.109375 -0.09375,-0.171875 -0.171875,-0.171875 -0.109375,0 -0.140625,0.078125 -0.1875,0.171875 L 0.578125,1.4375 C 0.53125,1.53125 0.53125,1.546875 0.53125,1.5625 c 0,0.109375 0.09375,0.171875 0.171875,0.171875 0.125,0 0.15625,-0.078125 0.1875,-0.171875 z m 0,0"
           style="stroke:none" />
      </symbol>
      <symbol
         id="symbol3471"
         overflow="visible">
        <path
           id="path3251"
           d=""
           style="stroke:none" />
      </symbol>
      <symbol
         id="symbol3168"
         overflow="visible">
        <path
           id="path2490"
           d="m 6.40625,-1.578125 c -0.875,0.640625 -0.984375,1.5625 -0.984375,1.5625 0,0.109375 0.0625,0.109375 0.15625,0.109375 0.125,0 0.15625,0 0.1875,-0.125 0.046875,-0.171875 0.15625,-0.609375 0.515625,-1 0.40625,-0.421875 0.75,-0.53125 1.046875,-0.625 0.03125,-0.015625 0.0625,-0.046875 0.0625,-0.078125 0,-0.078125 -0.03125,-0.09375 -0.125,-0.125 C 6.265625,-2.171875 5.90625,-2.890625 5.75,-3.5 5.734375,-3.578125 5.671875,-3.578125 5.578125,-3.578125 c -0.09375,0 -0.15625,0 -0.15625,0.09375 0,0.015625 0.0625,0.484375 0.40625,0.96875 0.15625,0.234375 0.359375,0.4375 0.578125,0.59375 H 0.8125 c -0.109375,0 -0.28125,0 -0.28125,0.171875 0,0.171875 0.171875,0.171875 0.28125,0.171875 z m 0,0"
           style="stroke:none" />
      </symbol>
      <symbol
         id="symbol7329"
         overflow="visible">
        <path
           id="path465"
           d="m 4.03125,-1.90625 c -0.375,-0.4375 -0.484375,-0.546875 -0.75,-0.734375 -0.421875,-0.3125 -0.875,-0.4375 -1.25,-0.4375 -0.875,0 -1.5,0.75 -1.5,1.578125 0,0.8125 0.609375,1.5625 1.46875,1.5625 0.96875,0 1.65625,-0.78125 1.90625,-1.15625 0.359375,0.4375 0.484375,0.546875 0.734375,0.734375 0.4375,0.3125 0.875,0.421875 1.265625,0.421875 0.859375,0 1.484375,-0.734375 1.484375,-1.5625 0,-0.828125 -0.59375,-1.578125 -1.46875,-1.578125 -0.96875,0 -1.640625,0.796875 -1.890625,1.171875 z m 0.21875,0.25 c 0.28125,-0.453125 0.890625,-1.15625 1.734375,-1.15625 0.71875,0 1.21875,0.640625 1.21875,1.3125 0,0.65625 -0.546875,1.1875 -1.1875,1.1875 -0.65625,0 -1.09375,-0.53125 -1.765625,-1.34375 z M 3.671875,-1.359375 C 3.40625,-0.90625 2.796875,-0.1875 1.9375,-0.1875 c -0.71875,0 -1.203125,-0.640625 -1.203125,-1.3125 0,-0.671875 0.546875,-1.1875 1.1875,-1.1875 0.640625,0 1.09375,0.53125 1.75,1.328125 z m 0,0"
           style="stroke:none" />
      </symbol>
      <symbol
         id="symbol4796"
         overflow="visible">
        <path
           id="path5558"
           d=""
           style="stroke:none" />
      </symbol>
      <symbol
         id="symbol8191"
         overflow="visible">
        <path
           id="path1025"
           d="M 2.5,23.515625 H 5.109375 V 22.96875 h -2.0625 V 0.15625 h 2.0625 v -0.5625 H 2.5 Z m 0,0"
           style="stroke:none" />
      </symbol>
      <symbol
         id="symbol848"
         overflow="visible">
        <path
           id="path8523"
           d="M 2.21875,22.96875 H 0.140625 v 0.546875 h 2.625 V -0.40625 h -2.625 v 0.5625 H 2.21875 Z m 0,0"
           style="stroke:none" />
      </symbol>
      <symbol
         id="symbol4864"
         overflow="visible">
        <path
           id="path9042"
           d=""
           style="stroke:none" />
      </symbol>
      <symbol
         id="symbol120"
         overflow="visible">
        <path
           id="path5976"
           d="M 4.828125,-4.09375 4,-6.078125 c -0.03125,-0.078125 -0.046875,-0.125 -0.046875,-0.125 0,-0.0625 0.15625,-0.25 0.578125,-0.296875 0.109375,-0.015625 0.203125,-0.015625 0.203125,-0.1875 0,-0.125 -0.125,-0.125 -0.15625,-0.125 -0.40625,0 -0.828125,0.03125 -1.25,0.03125 -0.25,0 -0.859375,-0.03125 -1.109375,-0.03125 -0.0625,0 -0.1875,0 -0.1875,0.203125 C 2.03125,-6.5 2.140625,-6.5 2.265625,-6.5 c 0.59375,0 0.65625,0.09375 0.75,0.3125 l 1.171875,2.78125 -2.109375,2.265625 -0.125,0.109375 C 1.46875,-0.5 1,-0.34375 0.484375,-0.3125 c -0.125,0.015625 -0.21875,0.015625 -0.21875,0.203125 0,0.015625 0,0.109375 0.140625,0.109375 0.296875,0 0.625,-0.03125 0.921875,-0.03125 C 1.703125,-0.03125 2.09375,0 2.453125,0 2.515625,0 2.625,0 2.625,-0.203125 2.625,-0.296875 2.53125,-0.3125 2.515625,-0.3125 c -0.09375,0 -0.40625,-0.03125 -0.40625,-0.3125 0,-0.15625 0.15625,-0.3125 0.265625,-0.4375 L 3.40625,-2.140625 4.296875,-3.125 l 1,2.390625 c 0.046875,0.109375 0.0625,0.109375 0.0625,0.140625 0,0.078125 -0.203125,0.25 -0.578125,0.28125 C 4.671875,-0.296875 4.578125,-0.296875 4.578125,-0.125 4.578125,0 4.6875,0 4.71875,0 5,0 5.703125,-0.03125 5.984375,-0.03125 6.234375,-0.03125 6.84375,0 7.09375,0 c 0.0625,0 0.1875,0 0.1875,-0.1875 0,-0.125 -0.109375,-0.125 -0.1875,-0.125 -0.65625,0 -0.6875,-0.03125 -0.859375,-0.4375 C 5.859375,-1.671875 5.1875,-3.234375 4.953125,-3.828125 5.625,-4.53125 6.671875,-5.71875 7,-5.984375 7.28125,-6.234375 7.671875,-6.46875 8.265625,-6.5 c 0.125,-0.015625 0.21875,-0.015625 0.21875,-0.203125 0,0 0,-0.109375 -0.125,-0.109375 -0.296875,0 -0.640625,0.03125 -0.9375,0.03125 -0.375,0 -0.75,-0.03125 -1.109375,-0.03125 -0.0625,0 -0.1875,0 -0.1875,0.203125 0,0.0625 0.046875,0.09375 0.109375,0.109375 0.09375,0.015625 0.40625,0.03125 0.40625,0.3125 0,0.140625 -0.109375,0.265625 -0.1875,0.359375 z m 0,0"
           style="stroke:none" />
      </symbol>
      <symbol
         id="symbol3519"
         overflow="visible">
        <path
           id="path9217"
           d="m 2.296875,-3.5 c 0.0625,-0.203125 0.15625,-0.59375 0.15625,-0.640625 0,-0.171875 -0.125,-0.265625 -0.296875,-0.265625 -0.015625,0 -0.296875,0.015625 -0.390625,0.359375 l -1.4375,5.765625 c -0.03125,0.125 -0.03125,0.140625 -0.03125,0.171875 0,0.140625 0.109375,0.265625 0.28125,0.265625 0.203125,0 0.328125,-0.1875 0.34375,-0.21875 C 0.96875,1.859375 1.09375,1.328125 1.46875,-0.203125 1.796875,0.0625 2.25,0.109375 2.4375,0.109375 c 0.703125,0 1.09375,-0.453125 1.328125,-0.734375 0.09375,0.453125 0.46875,0.734375 0.90625,0.734375 0.34375,0 0.578125,-0.234375 0.734375,-0.546875 0.171875,-0.359375 0.296875,-0.96875 0.296875,-0.984375 0,-0.109375 -0.09375,-0.109375 -0.125,-0.109375 -0.09375,0 -0.109375,0.046875 -0.140625,0.1875 -0.15625,0.640625 -0.34375,1.234375 -0.75,1.234375 -0.265625,0 -0.296875,-0.265625 -0.296875,-0.453125 0,-0.21875 0.109375,-0.6875 0.1875,-1.046875 L 4.859375,-2.6875 C 4.890625,-2.828125 5,-3.203125 5.03125,-3.359375 5.078125,-3.59375 5.1875,-3.96875 5.1875,-4.03125 c 0,-0.171875 -0.140625,-0.265625 -0.296875,-0.265625 -0.046875,0 -0.3125,0.015625 -0.390625,0.34375 l -0.46875,1.875 c -0.109375,0.5 -0.21875,0.90625 -0.25,1.015625 -0.015625,0.046875 -0.484375,0.953125 -1.296875,0.953125 -0.5,0 -0.734375,-0.328125 -0.734375,-0.875 0,-0.28125 0.0625,-0.5625 0.140625,-0.84375 z m 0,0"
           style="stroke:none" />
      </symbol>
      <symbol
         id="symbol3509"
         overflow="visible">
        <path
           id="path4214"
           d="m 5.15625,-3.71875 c 0.140625,0 0.5,0 0.5,-0.34375 0,-0.234375 -0.21875,-0.234375 -0.390625,-0.234375 h -2.28125 c -1.5,0 -2.609375,1.640625 -2.609375,2.828125 0,0.875 0.59375,1.578125 1.5,1.578125 1.171875,0 2.5,-1.203125 2.5,-2.734375 0,-0.171875 0,-0.65625 -0.3125,-1.09375 z M 1.890625,-0.109375 C 1.390625,-0.109375 1,-0.46875 1,-1.1875 c 0,-0.296875 0.109375,-1.109375 0.46875,-1.703125 0.421875,-0.6875 1.015625,-0.828125 1.359375,-0.828125 0.828125,0 0.90625,0.65625 0.90625,0.96875 0,0.46875 -0.203125,1.28125 -0.53125,1.796875 -0.390625,0.578125 -0.9375,0.84375 -1.3125,0.84375 z m 0,0"
           style="stroke:none" />
      </symbol>
      <symbol
         id="symbol3044"
         overflow="visible">
        <path
           id="path104"
           d="m 4.375,-7.09375 c 0.046875,-0.140625 0.046875,-0.171875 0.046875,-0.1875 0,-0.109375 -0.078125,-0.203125 -0.1875,-0.203125 -0.078125,0 -0.140625,0.03125 -0.171875,0.09375 l -3.46875,9.5 C 0.546875,2.25 0.546875,2.28125 0.546875,2.296875 0.546875,2.40625 0.640625,2.5 0.75,2.5 0.875,2.5 0.90625,2.421875 0.96875,2.25 Z m 0,0"
           style="stroke:none" />
      </symbol>
      <symbol
         id="symbol8982"
         overflow="visible">
        <path
           id="path6746"
           d="m 0.875,-0.59375 c -0.03125,0.15625 -0.09375,0.390625 -0.09375,0.4375 0,0.171875 0.140625,0.265625 0.296875,0.265625 0.125,0 0.296875,-0.078125 0.375,-0.28125 0,-0.015625 0.125,-0.484375 0.1875,-0.734375 l 0.21875,-0.890625 C 1.90625,-2.03125 1.96875,-2.25 2.03125,-2.46875 c 0.03125,-0.171875 0.109375,-0.46875 0.125,-0.5 0.140625,-0.3125 0.671875,-1.21875 1.625,-1.21875 0.453125,0 0.53125,0.375 0.53125,0.703125 0,0.609375 -0.484375,1.890625 -0.640625,2.3125 C 3.578125,-0.9375 3.5625,-0.8125 3.5625,-0.703125 c 0,0.46875 0.359375,0.8125 0.828125,0.8125 0.9375,0 1.296875,-1.453125 1.296875,-1.53125 0,-0.109375 -0.078125,-0.109375 -0.109375,-0.109375 -0.109375,0 -0.109375,0.03125 -0.15625,0.1875 -0.203125,0.671875 -0.53125,1.234375 -1.015625,1.234375 -0.171875,0 -0.234375,-0.09375 -0.234375,-0.328125 0,-0.25 0.078125,-0.484375 0.171875,-0.703125 0.1875,-0.53125 0.609375,-1.625 0.609375,-2.203125 0,-0.65625 -0.421875,-1.0625 -1.140625,-1.0625 -0.90625,0 -1.390625,0.640625 -1.5625,0.875 -0.046875,-0.5625 -0.453125,-0.875 -0.921875,-0.875 -0.453125,0 -0.640625,0.390625 -0.734375,0.5625 C 0.421875,-3.5 0.296875,-2.90625 0.296875,-2.875 c 0,0.109375 0.09375,0.109375 0.109375,0.109375 0.109375,0 0.109375,-0.015625 0.171875,-0.234375 0.171875,-0.703125 0.375,-1.1875 0.734375,-1.1875 0.1875,0 0.296875,0.125 0.296875,0.453125 0,0.21875 -0.03125,0.328125 -0.15625,0.84375 z m 0,0"
           style="stroke:none" />
      </symbol>
      <symbol
         id="symbol2687"
         overflow="visible">
        <path
           id="path9749"
           d="M 3.328125,-3.015625 C 3.390625,-3.265625 3.625,-4.1875 4.3125,-4.1875 c 0.046875,0 0.296875,0 0.5,0.125 C 4.53125,-4 4.34375,-3.765625 4.34375,-3.515625 c 0,0.15625 0.109375,0.34375 0.375,0.34375 0.21875,0 0.53125,-0.171875 0.53125,-0.578125 0,-0.515625 -0.578125,-0.65625 -0.921875,-0.65625 -0.578125,0 -0.921875,0.53125 -1.046875,0.75 -0.25,-0.65625 -0.78125,-0.75 -1.078125,-0.75 -1.03125,0 -1.609375,1.28125 -1.609375,1.53125 0,0.109375 0.109375,0.109375 0.125,0.109375 0.078125,0 0.109375,-0.03125 0.125,-0.109375 0.34375,-1.0625 1,-1.3125 1.34375,-1.3125 0.1875,0 0.53125,0.09375 0.53125,0.671875 0,0.3125 -0.171875,0.96875 -0.53125,2.375 -0.15625,0.609375 -0.515625,1.03125 -0.953125,1.03125 -0.0625,0 -0.28125,0 -0.5,-0.125 0.25,-0.0625 0.46875,-0.265625 0.46875,-0.546875 0,-0.265625 -0.21875,-0.34375 -0.359375,-0.34375 -0.3125,0 -0.546875,0.25 -0.546875,0.578125 0,0.453125 0.484375,0.65625 0.921875,0.65625 0.671875,0 1.03125,-0.703125 1.046875,-0.75 0.125,0.359375 0.484375,0.75 1.078125,0.75 1.03125,0 1.59375,-1.28125 1.59375,-1.53125 0,-0.109375 -0.078125,-0.109375 -0.109375,-0.109375 -0.09375,0 -0.109375,0.046875 -0.140625,0.109375 -0.328125,1.078125 -1,1.3125 -1.3125,1.3125 -0.390625,0 -0.546875,-0.3125 -0.546875,-0.65625 0,-0.21875 0.046875,-0.4375 0.15625,-0.875 z m 0,0"
           style="stroke:none" />
      </symbol>
      <symbol
         id="symbol9728"
         overflow="visible">
        <path
           id="path6926"
           d=""
           style="stroke:none" />
      </symbol>
      <symbol
         id="symbol8547"
         overflow="visible">
        <path
           id="path700"
           d="m 6.5625,-2.296875 c 0.171875,0 0.359375,0 0.359375,-0.203125 0,-0.1875 -0.1875,-0.1875 -0.359375,-0.1875 H 1.171875 c -0.171875,0 -0.34375,0 -0.34375,0.1875 0,0.203125 0.171875,0.203125 0.34375,0.203125 z m 0,0"
           style="stroke:none" />
      </symbol>
      <symbol
         id="symbol8197"
         overflow="visible">
        <path
           id="path3818"
           d="m 6.734375,-5.921875 c 0.109375,-0.046875 0.1875,-0.09375 0.1875,-0.21875 0,-0.109375 -0.078125,-0.203125 -0.203125,-0.203125 -0.046875,0 -0.140625,0.046875 -0.171875,0.0625 L 1.03125,-3.671875 c -0.171875,0.078125 -0.203125,0.140625 -0.203125,0.21875 0,0.09375 0.0625,0.15625 0.203125,0.21875 l 5.515625,2.59375 C 6.671875,-0.5625 6.6875,-0.5625 6.71875,-0.5625 c 0.109375,0 0.203125,-0.09375 0.203125,-0.203125 C 6.921875,-0.859375 6.875,-0.921875 6.703125,-1 L 1.5,-3.453125 Z M 6.5625,1.359375 c 0.171875,0 0.359375,0 0.359375,-0.1875 0,-0.203125 -0.21875,-0.203125 -0.359375,-0.203125 h -5.375 c -0.15625,0 -0.359375,0 -0.359375,0.203125 0,0.1875 0.171875,0.1875 0.34375,0.1875 z m 0,0"
           style="stroke:none" />
      </symbol>
      <symbol
         id="symbol1378"
         overflow="visible">
        <path
           id="path1261"
           d=""
           style="stroke:none" />
      </symbol>
      <symbol
         id="symbol8255"
         overflow="visible">
        <path
           id="path338"
           d="m 2.328125,-4.4375 c 0,-0.1875 0,-0.1875 -0.203125,-0.1875 -0.453125,0.4375 -1.078125,0.4375 -1.359375,0.4375 v 0.25 c 0.15625,0 0.625,0 1,-0.1875 v 3.546875 c 0,0.234375 0,0.328125 -0.6875,0.328125 H 0.8125 V 0 c 0.125,0 0.984375,-0.03125 1.234375,-0.03125 0.21875,0 1.09375,0.03125 1.25,0.03125 V -0.25 H 3.03125 c -0.703125,0 -0.703125,-0.09375 -0.703125,-0.328125 z m 0,0"
           style="stroke:none" />
      </symbol>
      <symbol
         id="symbol1110"
         overflow="visible">
        <path
           id="path1236"
           d="M 3.515625,-1.265625 H 3.28125 c -0.015625,0.15625 -0.09375,0.5625 -0.1875,0.625 C 3.046875,-0.59375 2.515625,-0.59375 2.40625,-0.59375 H 1.125 c 0.734375,-0.640625 0.984375,-0.84375 1.390625,-1.171875 0.515625,-0.40625 1,-0.84375 1,-1.5 0,-0.84375 -0.734375,-1.359375 -1.625,-1.359375 -0.859375,0 -1.453125,0.609375 -1.453125,1.25 0,0.34375 0.296875,0.390625 0.375,0.390625 0.15625,0 0.359375,-0.125 0.359375,-0.375 0,-0.125 -0.046875,-0.375 -0.40625,-0.375 C 0.984375,-4.21875 1.453125,-4.375 1.78125,-4.375 c 0.703125,0 1.0625,0.546875 1.0625,1.109375 0,0.609375 -0.4375,1.078125 -0.65625,1.328125 L 0.515625,-0.265625 C 0.4375,-0.203125 0.4375,-0.1875 0.4375,0 h 2.875 z m 0,0"
           style="stroke:none" />
      </symbol>
    </g>
    <g
       id="g2034">
      <symbol
         id="symbol1538"
         overflow="visible">
        <path
           id="path1164"
           d=""
           style="stroke:none" />
      </symbol>
      <symbol
         id="symbol847"
         overflow="visible">
        <path
           id="path4854"
           d="M 1.765625,-6.921875 0.328125,-6.8125 V -6.5 c 0.703125,0 0.78125,0.0625 0.78125,0.5625 V -0.75 c 0,0.4375 -0.109375,0.4375 -0.78125,0.4375 V 0 C 0.65625,-0.015625 1.1875,-0.03125 1.4375,-0.03125 c 0.25,0 0.734375,0.015625 1.109375,0.03125 v -0.3125 c -0.671875,0 -0.78125,0 -0.78125,-0.4375 z m 0,0"
           style="stroke:none" />
      </symbol>
      <symbol
         id="symbol2284"
         overflow="visible">
        <path
           id="path8528"
           d="M 1.765625,-4.40625 0.375,-4.296875 v 0.3125 c 0.640625,0 0.734375,0.0625 0.734375,0.546875 V -0.75 c 0,0.4375 -0.109375,0.4375 -0.78125,0.4375 V 0 C 0.640625,-0.015625 1.1875,-0.03125 1.421875,-0.03125 1.78125,-0.03125 2.125,-0.015625 2.46875,0 v -0.3125 c -0.671875,0 -0.703125,-0.046875 -0.703125,-0.4375 z m 0.03125,-1.734375 c 0,-0.3125 -0.234375,-0.53125 -0.515625,-0.53125 -0.3125,0 -0.53125,0.265625 -0.53125,0.53125 0,0.265625 0.21875,0.53125 0.53125,0.53125 0.28125,0 0.515625,-0.21875 0.515625,-0.53125 z m 0,0"
           style="stroke:none" />
      </symbol>
      <symbol
         id="symbol9636"
         overflow="visible">
        <path
           id="path6557"
           d="M 1.09375,-3.421875 V -0.75 c 0,0.4375 -0.109375,0.4375 -0.78125,0.4375 V 0 c 0.359375,-0.015625 0.859375,-0.03125 1.140625,-0.03125 0.25,0 0.765625,0.015625 1.109375,0.03125 v -0.3125 c -0.671875,0 -0.78125,0 -0.78125,-0.4375 V -2.59375 C 1.78125,-3.625 2.5,-4.1875 3.125,-4.1875 c 0.640625,0 0.75,0.53125 0.75,1.109375 V -0.75 c 0,0.4375 -0.109375,0.4375 -0.78125,0.4375 V 0 c 0.34375,-0.015625 0.859375,-0.03125 1.125,-0.03125 0.25,0 0.78125,0.015625 1.109375,0.03125 v -0.3125 c -0.65625,0 -0.765625,0 -0.765625,-0.4375 v -1.84375 c 0,-1.03125 0.703125,-1.59375 1.34375,-1.59375 0.625,0 0.734375,0.53125 0.734375,1.109375 V -0.75 c 0,0.4375 -0.109375,0.4375 -0.78125,0.4375 V 0 c 0.34375,-0.015625 0.859375,-0.03125 1.125,-0.03125 0.265625,0 0.78125,0.015625 1.125,0.03125 v -0.3125 c -0.515625,0 -0.765625,0 -0.78125,-0.296875 v -1.90625 c 0,-0.859375 0,-1.15625 -0.3125,-1.515625 -0.140625,-0.171875 -0.46875,-0.375 -1.046875,-0.375 -0.828125,0 -1.28125,0.59375 -1.4375,0.984375 C 4.390625,-4.296875 3.65625,-4.40625 3.203125,-4.40625 2.46875,-4.40625 2,-3.984375 1.71875,-3.359375 V -4.40625 L 0.3125,-4.296875 v 0.3125 c 0.703125,0 0.78125,0.0625 0.78125,0.5625 z m 0,0"
           style="stroke:none" />
      </symbol>
      <symbol
         id="symbol6065"
         overflow="visible">
        <path
           id="path6756"
           d="m 2.265625,-3.15625 h 1.6875 c 1.1875,0 2.265625,-0.796875 2.265625,-1.796875 C 6.21875,-5.9375 5.234375,-6.8125 3.875,-6.8125 H 0.34375 V -6.5 h 0.25 c 0.765625,0 0.78125,0.109375 0.78125,0.46875 v 5.25 c 0,0.359375 -0.015625,0.46875 -0.78125,0.46875 h -0.25 V 0 c 0.359375,-0.03125 1.09375,-0.03125 1.46875,-0.03125 0.375,0 1.125,0 1.484375,0.03125 v -0.3125 h -0.25 c -0.765625,0 -0.78125,-0.109375 -0.78125,-0.46875 z m -0.03125,-0.25 v -2.6875 C 2.234375,-6.4375 2.25,-6.5 2.71875,-6.5 h 0.890625 c 1.578125,0 1.578125,1.0625 1.578125,1.546875 0,0.46875 0,1.546875 -1.578125,1.546875 z m 0,0"
           style="stroke:none" />
      </symbol>
      <symbol
         id="symbol2150"
         overflow="visible">
        <path
           id="path8057"
           d="M 1.671875,-3.3125 V -4.40625 L 0.28125,-4.296875 v 0.3125 c 0.703125,0 0.78125,0.0625 0.78125,0.5625 V -0.75 c 0,0.4375 -0.109375,0.4375 -0.78125,0.4375 V 0 c 0.390625,-0.015625 0.859375,-0.03125 1.140625,-0.03125 0.390625,0 0.859375,0 1.265625,0.03125 V -0.3125 H 2.46875 c -0.734375,0 -0.75,-0.109375 -0.75,-0.46875 V -2.3125 c 0,-0.984375 0.421875,-1.875 1.171875,-1.875 0.0625,0 0.09375,0 0.109375,0.015625 -0.03125,0 -0.234375,0.125 -0.234375,0.390625 0,0.265625 0.21875,0.421875 0.4375,0.421875 0.171875,0 0.421875,-0.125 0.421875,-0.4375 0,-0.3125 -0.3125,-0.609375 -0.734375,-0.609375 -0.734375,0 -1.09375,0.671875 -1.21875,1.09375 z m 0,0"
           style="stroke:none" />
      </symbol>
      <symbol
         id="symbol5983"
         overflow="visible">
        <path
           id="path8198"
           d="M 4.28125,-5.578125 V -5.875 H 0.6875 v 0.296875 z m 0,0"
           style="stroke:none" />
      </symbol>
      <symbol
         id="symbol5878"
         overflow="visible">
        <path
           id="path792"
           d="m 6.84375,-3.265625 c 0.15625,0 0.34375,0 0.34375,-0.1875 C 7.1875,-3.65625 7,-3.65625 6.859375,-3.65625 h -5.96875 c -0.140625,0 -0.328125,0 -0.328125,0.203125 0,0.1875 0.1875,0.1875 0.328125,0.1875 z m 0.015625,1.9375 c 0.140625,0 0.328125,0 0.328125,-0.203125 0,-0.1875 -0.1875,-0.1875 -0.34375,-0.1875 H 0.890625 c -0.140625,0 -0.328125,0 -0.328125,0.1875 0,0.203125 0.1875,0.203125 0.328125,0.203125 z m 0,0"
           style="stroke:none" />
      </symbol>
      <symbol
         id="symbol473"
         overflow="visible">
        <path
           id="path3939"
           d="M 3.984375,-1.34375 C 5.515625,-1.46875 6.625,-2.390625 6.625,-3.40625 6.625,-4.4375 5.5,-5.34375 3.984375,-5.46875 v -0.546875 c 0,-0.34375 0,-0.484375 0.9375,-0.484375 H 5.25 v -0.3125 c -0.359375,0.03125 -1.265625,0.03125 -1.6875,0.03125 -0.40625,0 -1.328125,0 -1.6875,-0.03125 V -6.5 h 0.328125 c 0.953125,0 0.953125,0.125 0.953125,0.484375 V -5.46875 C 1.625,-5.3125 0.5625,-4.390625 0.5625,-3.40625 c 0,1.03125 1.109375,1.90625 2.59375,2.0625 v 0.5625 c 0,0.328125 0,0.46875 -0.953125,0.46875 H 1.875 V 0 c 0.359375,-0.03125 1.28125,-0.03125 1.6875,-0.03125 0.40625,0 1.328125,0 1.6875,0.03125 V -0.3125 H 4.921875 c -0.9375,0 -0.9375,-0.125 -0.9375,-0.46875 z M 3.15625,-1.578125 C 1.734375,-1.765625 1.5625,-2.78125 1.5625,-3.40625 c 0,-0.515625 0.09375,-1.625 1.59375,-1.828125 z M 3.984375,-5.25 c 1.375,0.171875 1.640625,1.078125 1.640625,1.84375 0,0.59375 -0.140625,1.65625 -1.640625,1.84375 z m 0,0"
           style="stroke:none" />
      </symbol>
      <symbol
         id="symbol6983"
         overflow="visible">
        <path
           id="path4954"
           d="m 3.296875,2.390625 c 0,-0.03125 0,-0.046875 -0.171875,-0.21875 C 1.890625,0.921875 1.5625,-0.96875 1.5625,-2.5 c 0,-1.734375 0.375,-3.46875 1.609375,-4.703125 0.125,-0.125 0.125,-0.140625 0.125,-0.171875 0,-0.078125 -0.03125,-0.109375 -0.09375,-0.109375 -0.109375,0 -1,0.6875 -1.59375,1.953125 -0.5,1.09375 -0.625,2.203125 -0.625,3.03125 0,0.78125 0.109375,1.984375 0.65625,3.125 C 2.25,1.84375 3.09375,2.5 3.203125,2.5 c 0.0625,0 0.09375,-0.03125 0.09375,-0.109375 z m 0,0"
           style="stroke:none" />
      </symbol>
      <symbol
         id="symbol1949"
         overflow="visible">
        <path
           id="path3933"
           d="m 2.875,-2.5 c 0,-0.765625 -0.109375,-1.96875 -0.65625,-3.109375 -0.59375,-1.21875 -1.453125,-1.875 -1.546875,-1.875 -0.0625,0 -0.109375,0.046875 -0.109375,0.109375 0,0.03125 0,0.046875 0.1875,0.234375 0.984375,0.984375 1.546875,2.5625 1.546875,4.640625 0,1.71875 -0.359375,3.46875 -1.59375,4.71875 C 0.5625,2.34375 0.5625,2.359375 0.5625,2.390625 0.5625,2.453125 0.609375,2.5 0.671875,2.5 0.765625,2.5 1.671875,1.8125 2.25,0.546875 2.765625,-0.546875 2.875,-1.65625 2.875,-2.5 Z m 0,0"
           style="stroke:none" />
      </symbol>
      <symbol
         id="symbol4276"
         overflow="visible">
        <path
           id="path9703"
           d=""
           style="stroke:none" />
      </symbol>
      <symbol
         id="symbol5493"
         overflow="visible">
        <path
           id="path2930"
           d="m 0.84375,-0.4375 c -0.015625,0.09375 -0.0625,0.265625 -0.0625,0.28125 0,0.15625 0.125,0.21875 0.234375,0.21875 0.125,0 0.234375,-0.078125 0.28125,-0.140625 0.03125,-0.0625 0.078125,-0.296875 0.125,-0.4375 0.03125,-0.125 0.109375,-0.453125 0.140625,-0.625 0.046875,-0.15625 0.09375,-0.3125 0.125,-0.46875 0.078125,-0.28125 0.09375,-0.34375 0.296875,-0.625 C 2.171875,-2.515625 2.5,-2.875 3.03125,-2.875 c 0.390625,0 0.40625,0.359375 0.40625,0.484375 0,0.421875 -0.296875,1.1875 -0.40625,1.484375 -0.078125,0.203125 -0.109375,0.265625 -0.109375,0.375 0,0.375 0.296875,0.59375 0.65625,0.59375 0.703125,0 1,-0.953125 1,-1.0625 0,-0.09375 -0.078125,-0.09375 -0.109375,-0.09375 -0.09375,0 -0.09375,0.046875 -0.125,0.125 C 4.1875,-0.40625 3.875,-0.125 3.609375,-0.125 c -0.15625,0 -0.1875,-0.09375 -0.1875,-0.25 0,-0.15625 0.046875,-0.25 0.171875,-0.5625 0.078125,-0.21875 0.359375,-0.953125 0.359375,-1.34375 0,-0.671875 -0.53125,-0.796875 -0.90625,-0.796875 -0.578125,0 -0.96875,0.359375 -1.171875,0.640625 -0.046875,-0.484375 -0.453125,-0.640625 -0.75,-0.640625 -0.296875,0 -0.453125,0.21875 -0.546875,0.375 -0.15625,0.265625 -0.25,0.65625 -0.25,0.703125 0,0.078125 0.09375,0.078125 0.125,0.078125 0.09375,0 0.09375,-0.015625 0.140625,-0.203125 0.109375,-0.40625 0.25,-0.75 0.515625,-0.75 0.1875,0 0.234375,0.15625 0.234375,0.34375 0,0.125 -0.0625,0.390625 -0.125,0.578125 -0.046875,0.1875 -0.109375,0.46875 -0.140625,0.625 z m 0,0"
           style="stroke:none" />
      </symbol>
      <symbol
         id="symbol9777"
         overflow="visible">
        <path
           id="path2602"
           d=""
           style="stroke:none" />
      </symbol>
      <symbol
         id="symbol7603"
         overflow="visible">
        <path
           id="path9758"
           d="m 6.40625,-1.578125 c -0.875,0.640625 -0.984375,1.5625 -0.984375,1.5625 0,0.109375 0.0625,0.109375 0.15625,0.109375 0.125,0 0.15625,0 0.1875,-0.125 0.046875,-0.171875 0.15625,-0.609375 0.515625,-1 0.40625,-0.421875 0.75,-0.53125 1.046875,-0.625 0.03125,-0.015625 0.0625,-0.046875 0.0625,-0.078125 0,-0.078125 -0.03125,-0.09375 -0.125,-0.125 C 6.265625,-2.171875 5.90625,-2.890625 5.75,-3.5 5.734375,-3.578125 5.671875,-3.578125 5.578125,-3.578125 c -0.09375,0 -0.15625,0 -0.15625,0.09375 0,0.015625 0.0625,0.484375 0.40625,0.96875 0.15625,0.234375 0.359375,0.4375 0.578125,0.59375 H 0.8125 c -0.109375,0 -0.28125,0 -0.28125,0.171875 0,0.171875 0.171875,0.171875 0.28125,0.171875 z m 0,0"
           style="stroke:none" />
      </symbol>
      <symbol
         id="symbol5618"
         overflow="visible">
        <path
           id="path9016"
           d="m 4.03125,-1.90625 c -0.375,-0.4375 -0.484375,-0.546875 -0.75,-0.734375 -0.421875,-0.3125 -0.875,-0.4375 -1.25,-0.4375 -0.875,0 -1.5,0.75 -1.5,1.578125 0,0.8125 0.609375,1.5625 1.46875,1.5625 0.96875,0 1.65625,-0.78125 1.90625,-1.15625 0.359375,0.4375 0.484375,0.546875 0.734375,0.734375 0.4375,0.3125 0.875,0.421875 1.265625,0.421875 0.859375,0 1.484375,-0.734375 1.484375,-1.5625 0,-0.828125 -0.59375,-1.578125 -1.46875,-1.578125 -0.96875,0 -1.640625,0.796875 -1.890625,1.171875 z m 0.21875,0.25 c 0.28125,-0.453125 0.890625,-1.15625 1.734375,-1.15625 0.71875,0 1.21875,0.640625 1.21875,1.3125 0,0.65625 -0.546875,1.1875 -1.1875,1.1875 -0.65625,0 -1.09375,-0.53125 -1.765625,-1.34375 z M 3.671875,-1.359375 C 3.40625,-0.90625 2.796875,-0.1875 1.9375,-0.1875 c -0.71875,0 -1.203125,-0.640625 -1.203125,-1.3125 0,-0.671875 0.546875,-1.1875 1.1875,-1.1875 0.640625,0 1.09375,0.53125 1.75,1.328125 z m 0,0"
           style="stroke:none" />
      </symbol>
      <symbol
         id="symbol399"
         overflow="visible">
        <path
           id="path7931"
           d=""
           style="stroke:none" />
      </symbol>
      <symbol
         id="symbol8129"
         overflow="visible">
        <path
           id="path6279"
           d="M 2.5,23.515625 H 5.109375 V 22.96875 h -2.0625 V 0.15625 h 2.0625 v -0.5625 H 2.5 Z m 0,0"
           style="stroke:none" />
      </symbol>
      <symbol
         id="symbol2382"
         overflow="visible">
        <path
           id="path7354"
           d="M 2.21875,22.96875 H 0.140625 v 0.546875 h 2.625 V -0.40625 h -2.625 v 0.5625 H 2.21875 Z m 0,0"
           style="stroke:none" />
      </symbol>
      <symbol
         id="symbol2175"
         overflow="visible">
        <path
           id="path5507"
           d=""
           style="stroke:none" />
      </symbol>
      <symbol
         id="symbol5200"
         overflow="visible">
        <path
           id="path7578"
           d="M 4.828125,-4.09375 4,-6.078125 c -0.03125,-0.078125 -0.046875,-0.125 -0.046875,-0.125 0,-0.0625 0.15625,-0.25 0.578125,-0.296875 0.109375,-0.015625 0.203125,-0.015625 0.203125,-0.1875 0,-0.125 -0.125,-0.125 -0.15625,-0.125 -0.40625,0 -0.828125,0.03125 -1.25,0.03125 -0.25,0 -0.859375,-0.03125 -1.109375,-0.03125 -0.0625,0 -0.1875,0 -0.1875,0.203125 C 2.03125,-6.5 2.140625,-6.5 2.265625,-6.5 c 0.59375,0 0.65625,0.09375 0.75,0.3125 l 1.171875,2.78125 -2.109375,2.265625 -0.125,0.109375 C 1.46875,-0.5 1,-0.34375 0.484375,-0.3125 c -0.125,0.015625 -0.21875,0.015625 -0.21875,0.203125 0,0.015625 0,0.109375 0.140625,0.109375 0.296875,0 0.625,-0.03125 0.921875,-0.03125 C 1.703125,-0.03125 2.09375,0 2.453125,0 2.515625,0 2.625,0 2.625,-0.203125 2.625,-0.296875 2.53125,-0.3125 2.515625,-0.3125 c -0.09375,0 -0.40625,-0.03125 -0.40625,-0.3125 0,-0.15625 0.15625,-0.3125 0.265625,-0.4375 L 3.40625,-2.140625 4.296875,-3.125 l 1,2.390625 c 0.046875,0.109375 0.0625,0.109375 0.0625,0.140625 0,0.078125 -0.203125,0.25 -0.578125,0.28125 C 4.671875,-0.296875 4.578125,-0.296875 4.578125,-0.125 4.578125,0 4.6875,0 4.71875,0 5,0 5.703125,-0.03125 5.984375,-0.03125 6.234375,-0.03125 6.84375,0 7.09375,0 c 0.0625,0 0.1875,0 0.1875,-0.1875 0,-0.125 -0.109375,-0.125 -0.1875,-0.125 -0.65625,0 -0.6875,-0.03125 -0.859375,-0.4375 C 5.859375,-1.671875 5.1875,-3.234375 4.953125,-3.828125 5.625,-4.53125 6.671875,-5.71875 7,-5.984375 7.28125,-6.234375 7.671875,-6.46875 8.265625,-6.5 c 0.125,-0.015625 0.21875,-0.015625 0.21875,-0.203125 0,0 0,-0.109375 -0.125,-0.109375 -0.296875,0 -0.640625,0.03125 -0.9375,0.03125 -0.375,0 -0.75,-0.03125 -1.109375,-0.03125 -0.0625,0 -0.1875,0 -0.1875,0.203125 0,0.0625 0.046875,0.09375 0.109375,0.109375 0.09375,0.015625 0.40625,0.03125 0.40625,0.3125 0,0.140625 -0.109375,0.265625 -0.1875,0.359375 z m 0,0"
           style="stroke:none" />
      </symbol>
      <symbol
         id="symbol5363"
         overflow="visible">
        <path
           id="path8305"
           d="m 2.296875,-3.5 c 0.0625,-0.203125 0.15625,-0.59375 0.15625,-0.640625 0,-0.171875 -0.125,-0.265625 -0.296875,-0.265625 -0.015625,0 -0.296875,0.015625 -0.390625,0.359375 l -1.4375,5.765625 c -0.03125,0.125 -0.03125,0.140625 -0.03125,0.171875 0,0.140625 0.109375,0.265625 0.28125,0.265625 0.203125,0 0.328125,-0.1875 0.34375,-0.21875 C 0.96875,1.859375 1.09375,1.328125 1.46875,-0.203125 1.796875,0.0625 2.25,0.109375 2.4375,0.109375 c 0.703125,0 1.09375,-0.453125 1.328125,-0.734375 0.09375,0.453125 0.46875,0.734375 0.90625,0.734375 0.34375,0 0.578125,-0.234375 0.734375,-0.546875 0.171875,-0.359375 0.296875,-0.96875 0.296875,-0.984375 0,-0.109375 -0.09375,-0.109375 -0.125,-0.109375 -0.09375,0 -0.109375,0.046875 -0.140625,0.1875 -0.15625,0.640625 -0.34375,1.234375 -0.75,1.234375 -0.265625,0 -0.296875,-0.265625 -0.296875,-0.453125 0,-0.21875 0.109375,-0.6875 0.1875,-1.046875 L 4.859375,-2.6875 C 4.890625,-2.828125 5,-3.203125 5.03125,-3.359375 5.078125,-3.59375 5.1875,-3.96875 5.1875,-4.03125 c 0,-0.171875 -0.140625,-0.265625 -0.296875,-0.265625 -0.046875,0 -0.3125,0.015625 -0.390625,0.34375 l -0.46875,1.875 c -0.109375,0.5 -0.21875,0.90625 -0.25,1.015625 -0.015625,0.046875 -0.484375,0.953125 -1.296875,0.953125 -0.5,0 -0.734375,-0.328125 -0.734375,-0.875 0,-0.28125 0.0625,-0.5625 0.140625,-0.84375 z m 0,0"
           style="stroke:none" />
      </symbol>
      <symbol
         id="symbol3646"
         overflow="visible">
        <path
           id="path7803"
           d="m 5.15625,-3.71875 c 0.140625,0 0.5,0 0.5,-0.34375 0,-0.234375 -0.21875,-0.234375 -0.390625,-0.234375 h -2.28125 c -1.5,0 -2.609375,1.640625 -2.609375,2.828125 0,0.875 0.59375,1.578125 1.5,1.578125 1.171875,0 2.5,-1.203125 2.5,-2.734375 0,-0.171875 0,-0.65625 -0.3125,-1.09375 z M 1.890625,-0.109375 C 1.390625,-0.109375 1,-0.46875 1,-1.1875 c 0,-0.296875 0.109375,-1.109375 0.46875,-1.703125 0.421875,-0.6875 1.015625,-0.828125 1.359375,-0.828125 0.828125,0 0.90625,0.65625 0.90625,0.96875 0,0.46875 -0.203125,1.28125 -0.53125,1.796875 -0.390625,0.578125 -0.9375,0.84375 -1.3125,0.84375 z m 0,0"
           style="stroke:none" />
      </symbol>
      <symbol
         id="symbol5891"
         overflow="visible">
        <path
           id="path8841"
           d="m 4.375,-7.09375 c 0.046875,-0.140625 0.046875,-0.171875 0.046875,-0.1875 0,-0.109375 -0.078125,-0.203125 -0.1875,-0.203125 -0.078125,0 -0.140625,0.03125 -0.171875,0.09375 l -3.46875,9.5 C 0.546875,2.25 0.546875,2.28125 0.546875,2.296875 0.546875,2.40625 0.640625,2.5 0.75,2.5 0.875,2.5 0.90625,2.421875 0.96875,2.25 Z m 0,0"
           style="stroke:none" />
      </symbol>
      <symbol
         id="symbol8400"
         overflow="visible">
        <path
           id="path3512"
           d="m 0.875,-0.59375 c -0.03125,0.15625 -0.09375,0.390625 -0.09375,0.4375 0,0.171875 0.140625,0.265625 0.296875,0.265625 0.125,0 0.296875,-0.078125 0.375,-0.28125 0,-0.015625 0.125,-0.484375 0.1875,-0.734375 l 0.21875,-0.890625 C 1.90625,-2.03125 1.96875,-2.25 2.03125,-2.46875 c 0.03125,-0.171875 0.109375,-0.46875 0.125,-0.5 0.140625,-0.3125 0.671875,-1.21875 1.625,-1.21875 0.453125,0 0.53125,0.375 0.53125,0.703125 0,0.609375 -0.484375,1.890625 -0.640625,2.3125 C 3.578125,-0.9375 3.5625,-0.8125 3.5625,-0.703125 c 0,0.46875 0.359375,0.8125 0.828125,0.8125 0.9375,0 1.296875,-1.453125 1.296875,-1.53125 0,-0.109375 -0.078125,-0.109375 -0.109375,-0.109375 -0.109375,0 -0.109375,0.03125 -0.15625,0.1875 -0.203125,0.671875 -0.53125,1.234375 -1.015625,1.234375 -0.171875,0 -0.234375,-0.09375 -0.234375,-0.328125 0,-0.25 0.078125,-0.484375 0.171875,-0.703125 0.1875,-0.53125 0.609375,-1.625 0.609375,-2.203125 0,-0.65625 -0.421875,-1.0625 -1.140625,-1.0625 -0.90625,0 -1.390625,0.640625 -1.5625,0.875 -0.046875,-0.5625 -0.453125,-0.875 -0.921875,-0.875 -0.453125,0 -0.640625,0.390625 -0.734375,0.5625 C 0.421875,-3.5 0.296875,-2.90625 0.296875,-2.875 c 0,0.109375 0.09375,0.109375 0.109375,0.109375 0.109375,0 0.109375,-0.015625 0.171875,-0.234375 0.171875,-0.703125 0.375,-1.1875 0.734375,-1.1875 0.1875,0 0.296875,0.125 0.296875,0.453125 0,0.21875 -0.03125,0.328125 -0.15625,0.84375 z m 0,0"
           style="stroke:none" />
      </symbol>
      <symbol
         id="symbol9433"
         overflow="visible">
        <path
           id="path1829"
           d="M 3.328125,-3.015625 C 3.390625,-3.265625 3.625,-4.1875 4.3125,-4.1875 c 0.046875,0 0.296875,0 0.5,0.125 C 4.53125,-4 4.34375,-3.765625 4.34375,-3.515625 c 0,0.15625 0.109375,0.34375 0.375,0.34375 0.21875,0 0.53125,-0.171875 0.53125,-0.578125 0,-0.515625 -0.578125,-0.65625 -0.921875,-0.65625 -0.578125,0 -0.921875,0.53125 -1.046875,0.75 -0.25,-0.65625 -0.78125,-0.75 -1.078125,-0.75 -1.03125,0 -1.609375,1.28125 -1.609375,1.53125 0,0.109375 0.109375,0.109375 0.125,0.109375 0.078125,0 0.109375,-0.03125 0.125,-0.109375 0.34375,-1.0625 1,-1.3125 1.34375,-1.3125 0.1875,0 0.53125,0.09375 0.53125,0.671875 0,0.3125 -0.171875,0.96875 -0.53125,2.375 -0.15625,0.609375 -0.515625,1.03125 -0.953125,1.03125 -0.0625,0 -0.28125,0 -0.5,-0.125 0.25,-0.0625 0.46875,-0.265625 0.46875,-0.546875 0,-0.265625 -0.21875,-0.34375 -0.359375,-0.34375 -0.3125,0 -0.546875,0.25 -0.546875,0.578125 0,0.453125 0.484375,0.65625 0.921875,0.65625 0.671875,0 1.03125,-0.703125 1.046875,-0.75 0.125,0.359375 0.484375,0.75 1.078125,0.75 1.03125,0 1.59375,-1.28125 1.59375,-1.53125 0,-0.109375 -0.078125,-0.109375 -0.109375,-0.109375 -0.09375,0 -0.109375,0.046875 -0.140625,0.109375 -0.328125,1.078125 -1,1.3125 -1.3125,1.3125 -0.390625,0 -0.546875,-0.3125 -0.546875,-0.65625 0,-0.21875 0.046875,-0.4375 0.15625,-0.875 z m 0,0"
           style="stroke:none" />
      </symbol>
      <symbol
         id="symbol9350"
         overflow="visible">
        <path
           id="path6819"
           d=""
           style="stroke:none" />
      </symbol>
      <symbol
         id="symbol3291"
         overflow="visible">
        <path
           id="path4026"
           d="m 6.5625,-2.296875 c 0.171875,0 0.359375,0 0.359375,-0.203125 0,-0.1875 -0.1875,-0.1875 -0.359375,-0.1875 H 1.171875 c -0.171875,0 -0.34375,0 -0.34375,0.1875 0,0.203125 0.171875,0.203125 0.34375,0.203125 z m 0,0"
           style="stroke:none" />
      </symbol>
      <symbol
         id="symbol215"
         overflow="visible">
        <path
           id="path8190"
           d="m 6.734375,-5.921875 c 0.109375,-0.046875 0.1875,-0.09375 0.1875,-0.21875 0,-0.109375 -0.078125,-0.203125 -0.203125,-0.203125 -0.046875,0 -0.140625,0.046875 -0.171875,0.0625 L 1.03125,-3.671875 c -0.171875,0.078125 -0.203125,0.140625 -0.203125,0.21875 0,0.09375 0.0625,0.15625 0.203125,0.21875 l 5.515625,2.59375 C 6.671875,-0.5625 6.6875,-0.5625 6.71875,-0.5625 c 0.109375,0 0.203125,-0.09375 0.203125,-0.203125 C 6.921875,-0.859375 6.875,-0.921875 6.703125,-1 L 1.5,-3.453125 Z M 6.5625,1.359375 c 0.171875,0 0.359375,0 0.359375,-0.1875 0,-0.203125 -0.21875,-0.203125 -0.359375,-0.203125 h -5.375 c -0.15625,0 -0.359375,0 -0.359375,0.203125 0,0.1875 0.171875,0.1875 0.34375,0.1875 z m 0,0"
           style="stroke:none" />
      </symbol>
      <symbol
         id="symbol6762"
         overflow="visible">
        <path
           id="path7768"
           d=""
           style="stroke:none" />
      </symbol>
      <symbol
         id="symbol8314"
         overflow="visible">
        <path
           id="path9784"
           d="M 1.984375,-3.171875 C 1.984375,-3.3125 1.96875,-3.3125 1.796875,-3.3125 1.453125,-3 0.890625,-3 0.796875,-3 H 0.71875 v 0.21875 h 0.078125 c 0.109375,0 0.4375,-0.015625 0.734375,-0.140625 v 2.5 c 0,0.140625 0,0.203125 -0.53125,0.203125 H 0.75 V 0 c 0.265625,-0.015625 0.71875,-0.015625 1,-0.015625 0.296875,0 0.734375,0 1.015625,0.015625 v -0.21875 h -0.25 c -0.53125,0 -0.53125,-0.0625 -0.53125,-0.203125 z m 0,0"
           style="stroke:none" />
      </symbol>
      <symbol
         id="symbol6218"
         overflow="visible">
        <path
           id="path3303"
           d="M 2.9375,-0.96875 H 2.71875 c 0,0.09375 -0.0625,0.40625 -0.140625,0.453125 -0.03125,0.03125 -0.453125,0.03125 -0.53125,0.03125 H 1.078125 C 1.40625,-0.71875 1.765625,-1 2.0625,-1.203125 c 0.453125,-0.3125 0.875,-0.59375 0.875,-1.125 0,-0.640625 -0.609375,-0.984375 -1.3125,-0.984375 -0.671875,0 -1.171875,0.375 -1.171875,0.875 0,0.25 0.21875,0.296875 0.296875,0.296875 0.125,0 0.28125,-0.09375 0.28125,-0.296875 0,-0.171875 -0.125,-0.28125 -0.28125,-0.28125 0.140625,-0.234375 0.4375,-0.375 0.765625,-0.375 0.484375,0 0.890625,0.28125 0.890625,0.765625 0,0.421875 -0.296875,0.75 -0.671875,1.0625 l -1.21875,1.03125 C 0.46875,-0.1875 0.453125,-0.1875 0.453125,-0.15625 V 0 h 2.3125 z m 0,0"
           style="stroke:none" />
      </symbol>
    </g>
  </defs>
  <sodipodi:namedview
     fit-margin-bottom="0"
     fit-margin-right="0"
     fit-margin-left="0"
     fit-margin-top="0"
     inkscape:window-maximized="1"
     inkscape:window-y="-8"
     inkscape:window-x="1912"
     inkscape:window-height="1017"
     inkscape:window-width="1920"
     showgrid="false"
     inkscape:document-rotation="0"
     inkscape:current-layer="g8380"
     inkscape:document-units="mm"
     inkscape:cy="231.36001"
     inkscape:cx="26.430104"
     inkscape:zoom="0.7"
     inkscape:pageshadow="2"
     inkscape:pageopacity="0.0"
     borderopacity="1.0"
     bordercolor="#666666"
     pagecolor="#ffffff"
     id="base" />
  <metadata
     id="metadata4528">
    <rdf:RDF>
      <cc:Work
         rdf:about="">
        <dc:format>image/svg+xml</dc:format>
        <dc:type
           rdf:resource="http://purl.org/dc/dcmitype/StillImage" />
        <dc:title></dc:title>
      </cc:Work>
    </rdf:RDF>
  </metadata>
  <g
     transform="translate(-54.56699,-35.889975)"
     id="layer1"
     inkscape:groupmode="layer"
     inkscape:label="Layer 1">
    <g
       inkscape:label=""
       transform="translate(-209.54504,-54.957841)"
       id="g4655">
      <g
         id="g8380">
        <rect
           y="90.847816"
           x="264.11203"
           height="30.186304"
           width="121.70224"
           id="rect2122"
           style="fill:#eff9f0;fill-opacity:1;stroke:none;stroke-width:0.309643;stop-color:#000000" />
        <g
           inkscape:label=""
           transform="translate(24.3658,10.547429)"
           id="g5032">
          <g
             id="g3932">
            <g
               id="g3496"
               style="fill:#000000;fill-opacity:1">
              <use
                 height="100%"
                 width="100%"
                 id="use3659"
                 y="96.877998"
                 x="243.24899"
                 xlink:href="#symbol847" />
              <use
                 height="100%"
                 width="100%"
                 id="use3095"
                 y="96.877998"
                 x="246.01662"
                 xlink:href="#symbol2284" />
              <use
                 height="100%"
                 width="100%"
                 id="use1509"
                 y="96.877998"
                 x="248.78423"
                 xlink:href="#symbol9636" />
            </g>
            <g
               transform="translate(4.9136905)"
               id="g8223"
               style="fill:#000000;fill-opacity:1">
              <use
                 height="100%"
                 width="100%"
                 id="use2331"
                 y="102.855"
                 x="239.763"
                 xlink:href="#symbol5493" />
            </g>
            <g
               transform="translate(4.9136905)"
               id="g3831"
               style="fill:#000000;fill-opacity:1">
              <use
                 height="100%"
                 width="100%"
                 id="use5696"
                 y="102.855"
                 x="244.687"
                 xlink:href="#symbol7603" />
              <use
                 height="100%"
                 width="100%"
                 id="use8402"
                 y="102.855"
                 x="252.62946"
                 xlink:href="#symbol5618" />
            </g>
            <g
               transform="translate(-3.4017857)"
               inkscape:transform-center-x="-2.6458333"
               id="g7541"
               style="fill:#000000;fill-opacity:1">
              <use
                 height="100%"
                 width="100%"
                 id="use3954"
                 y="96.877998"
                 x="262.233"
                 xlink:href="#symbol6065" />
              <use
                 height="100%"
                 width="100%"
                 id="use4203"
                 y="96.877998"
                 x="269.01355"
                 xlink:href="#symbol2150" />
            </g>
            <g
               transform="translate(-5.3549107)"
               id="g4723"
               style="fill:#000000;fill-opacity:1">
              <use
                 height="100%"
                 width="100%"
                 id="use6571"
                 y="82.830002"
                 x="274.57501"
                 xlink:href="#symbol8129" />
            </g>
            <g
               transform="translate(-5.3549107)"
               id="g2093"
               style="fill:#000000;fill-opacity:1">
              <use
                 height="100%"
                 width="100%"
                 id="use9598"
                 y="87.619003"
                 x="283.88599"
                 xlink:href="#symbol5983" />
            </g>
            <g
               transform="translate(-5.3549107)"
               id="g2179"
               style="fill:#000000;fill-opacity:1">
              <use
                 height="100%"
                 width="100%"
                 id="use3163"
                 y="90.138"
                 x="281.02899"
                 xlink:href="#symbol5200" />
            </g>
            <g
               transform="translate(-5.3549107)"
               id="g9748"
               style="fill:#000000;fill-opacity:1">
              <use
                 height="100%"
                 width="100%"
                 id="use3942"
                 y="91.632004"
                 x="289.28299"
                 xlink:href="#symbol5493" />
            </g>
            <g
               transform="translate(-5.3549107)"
               id="g8679"
               style="fill:#000000;fill-opacity:1">
              <use
                 height="100%"
                 width="100%"
                 id="use2851"
                 y="90.138"
                 x="296.92001"
                 xlink:href="#symbol3291" />
            </g>
            <g
               transform="translate(-5.3549107)"
               id="g7006"
               style="fill:#000000;fill-opacity:1">
              <use
                 height="100%"
                 width="100%"
                 id="use9794"
                 y="90.138"
                 x="306.88199"
                 xlink:href="#symbol5363" />
            </g>
            <path
               id="path9317"
               d="m 275.67243,94.386719 h 31.85938"
               style="fill:none;stroke:#000000;stroke-width:0.398;stroke-linecap:butt;stroke-linejoin:miter;stroke-miterlimit:10;stroke-opacity:1" />
            <g
               transform="translate(-5.3549107)"
               id="g909"
               style="fill:#000000;fill-opacity:1">
              <use
                 height="100%"
                 width="100%"
                 id="use6092"
                 y="105.142"
                 x="285.31201"
                 xlink:href="#symbol3646" />
            </g>
            <g
               transform="translate(-5.3549107)"
               id="g423"
               style="fill:#000000;fill-opacity:1">
              <use
                 height="100%"
                 width="100%"
                 id="use1901"
                 y="105.142"
                 x="291.36328"
                 xlink:href="#symbol5891" />
              <use
                 height="100%"
                 width="100%"
                 id="use119"
                 y="105.142"
                 x="296.34457"
                 xlink:href="#symbol8400" />
            </g>
            <g
               transform="translate(-5.3549107)"
               id="g7592"
               style="fill:#000000;fill-opacity:1">
              <use
                 height="100%"
                 width="100%"
                 id="use51"
                 y="98.991997"
                 x="303.51901"
                 xlink:href="#symbol8314" />
            </g>
            <path
               id="path7439"
               d="m 298.16462,99.925781 h 3.39063"
               style="fill:none;stroke:#000000;stroke-width:0.339;stroke-linecap:butt;stroke-linejoin:miter;stroke-miterlimit:10;stroke-opacity:1" />
            <g
               transform="translate(-5.3549107)"
               id="g4088"
               style="fill:#000000;fill-opacity:1">
              <use
                 height="100%"
                 width="100%"
                 id="use6499"
                 y="104.07"
                 x="303.51901"
                 xlink:href="#symbol6218" />
            </g>
            <g
               transform="translate(-8.000744)"
               id="g3001"
               style="fill:#000000;fill-opacity:1">
              <use
                 height="100%"
                 width="100%"
                 id="use9232"
                 y="96.877998"
                 x="316.84799"
                 xlink:href="#symbol215" />
            </g>
            <g
               transform="translate(-9.5126488,-0.75595238)"
               id="g9095"
               style="fill:#000000;fill-opacity:1">
              <use
                 height="100%"
                 width="100%"
                 id="use5302"
                 y="96.877998"
                 x="327.36401"
                 xlink:href="#symbol9433" />
            </g>
            <g
               transform="translate(-9.5126488)"
               id="g6755"
               style="fill:#000000;fill-opacity:1">
              <use
                 height="100%"
                 width="100%"
                 id="use9878"
                 y="82.830002"
                 x="333.05801"
                 xlink:href="#symbol2382" />
            </g>
            <g
               transform="translate(-12.473214)"
               id="g1947"
               style="fill:#000000;fill-opacity:1">
              <use
                 height="100%"
                 width="100%"
                 id="use2178"
                 y="96.877998"
                 x="341.08301"
                 xlink:href="#symbol5878" />
            </g>
            <g
               transform="translate(-13.985119)"
               id="g3863"
               style="fill:#000000;fill-opacity:1">
              <use
                 height="100%"
                 width="100%"
                 id="use9993"
                 y="96.877998"
                 x="351.6015"
                 xlink:href="#symbol473" />
              <use
                 height="100%"
                 width="100%"
                 id="use6956"
                 y="96.877998"
                 x="358.79651"
                 xlink:href="#symbol6983" />
            </g>
            <g
               transform="translate(-13.985119)"
               id="g4379"
               style="fill:#000000;fill-opacity:1">
              <use
                 height="100%"
                 width="100%"
                 id="use5391"
                 y="96.877998"
                 x="362.66901"
                 xlink:href="#symbol9433" />
            </g>
            <g
               transform="translate(-13.985119)"
               id="g6881"
               style="fill:#000000;fill-opacity:1">
              <use
                 height="100%"
                 width="100%"
                 id="use9397"
                 y="96.877998"
                 x="368.36301"
                 xlink:href="#symbol1949" />
            </g>
          </g>
        </g>
      </g>
    </g>
  </g>
</svg>
